%TF.GenerationSoftware,KiCad,Pcbnew,(6.0.0)*%
%TF.CreationDate,2022-02-04T14:54:06+01:00*%
%TF.ProjectId,wifitemp,77696669-7465-46d7-902e-6b696361645f,rev?*%
%TF.SameCoordinates,Original*%
%TF.FileFunction,Legend,Top*%
%TF.FilePolarity,Positive*%
%FSLAX46Y46*%
G04 Gerber Fmt 4.6, Leading zero omitted, Abs format (unit mm)*
G04 Created by KiCad (PCBNEW (6.0.0)) date 2022-02-04 14:54:06*
%MOMM*%
%LPD*%
G01*
G04 APERTURE LIST*
%ADD10C,0.125000*%
%ADD11C,0.150000*%
%ADD12C,0.300000*%
%ADD13C,0.120000*%
%ADD14C,0.100000*%
G04 APERTURE END LIST*
D10*
X155380952Y-64452380D02*
X155380952Y-65166666D01*
X155333333Y-65309523D01*
X155238095Y-65404761D01*
X155095238Y-65452380D01*
X155000000Y-65452380D01*
X156333333Y-65452380D02*
X155857142Y-65452380D01*
X155857142Y-64452380D01*
X157238095Y-65357142D02*
X157190476Y-65404761D01*
X157047619Y-65452380D01*
X156952380Y-65452380D01*
X156809523Y-65404761D01*
X156714285Y-65309523D01*
X156666666Y-65214285D01*
X156619047Y-65023809D01*
X156619047Y-64880952D01*
X156666666Y-64690476D01*
X156714285Y-64595238D01*
X156809523Y-64500000D01*
X156952380Y-64452380D01*
X157047619Y-64452380D01*
X157190476Y-64500000D01*
X157238095Y-64547619D01*
X157952380Y-64452380D02*
X157952380Y-65166666D01*
X157904761Y-65309523D01*
X157809523Y-65404761D01*
X157666666Y-65452380D01*
X157571428Y-65452380D01*
X158904761Y-65452380D02*
X158428571Y-65452380D01*
X158428571Y-64452380D01*
X159809523Y-65357142D02*
X159761904Y-65404761D01*
X159619047Y-65452380D01*
X159523809Y-65452380D01*
X159380952Y-65404761D01*
X159285714Y-65309523D01*
X159238095Y-65214285D01*
X159190476Y-65023809D01*
X159190476Y-64880952D01*
X159238095Y-64690476D01*
X159285714Y-64595238D01*
X159380952Y-64500000D01*
X159523809Y-64452380D01*
X159619047Y-64452380D01*
X159761904Y-64500000D01*
X159809523Y-64547619D01*
X160523809Y-64452380D02*
X160523809Y-65166666D01*
X160476190Y-65309523D01*
X160380952Y-65404761D01*
X160238095Y-65452380D01*
X160142857Y-65452380D01*
X161476190Y-65452380D02*
X161000000Y-65452380D01*
X161000000Y-64452380D01*
X162380952Y-65357142D02*
X162333333Y-65404761D01*
X162190476Y-65452380D01*
X162095238Y-65452380D01*
X161952380Y-65404761D01*
X161857142Y-65309523D01*
X161809523Y-65214285D01*
X161761904Y-65023809D01*
X161761904Y-64880952D01*
X161809523Y-64690476D01*
X161857142Y-64595238D01*
X161952380Y-64500000D01*
X162095238Y-64452380D01*
X162190476Y-64452380D01*
X162333333Y-64500000D01*
X162380952Y-64547619D01*
X163095238Y-64452380D02*
X163095238Y-65166666D01*
X163047619Y-65309523D01*
X162952380Y-65404761D01*
X162809523Y-65452380D01*
X162714285Y-65452380D01*
X164047619Y-65452380D02*
X163571428Y-65452380D01*
X163571428Y-64452380D01*
X164952380Y-65357142D02*
X164904761Y-65404761D01*
X164761904Y-65452380D01*
X164666666Y-65452380D01*
X164523809Y-65404761D01*
X164428571Y-65309523D01*
X164380952Y-65214285D01*
X164333333Y-65023809D01*
X164333333Y-64880952D01*
X164380952Y-64690476D01*
X164428571Y-64595238D01*
X164523809Y-64500000D01*
X164666666Y-64452380D01*
X164761904Y-64452380D01*
X164904761Y-64500000D01*
X164952380Y-64547619D01*
X169190476Y-132971071D02*
X169428571Y-134471071D01*
X169619047Y-133399642D01*
X169809523Y-134471071D01*
X170047619Y-132971071D01*
X170428571Y-134471071D02*
X170428571Y-132971071D01*
X171238095Y-133685357D02*
X170904761Y-133685357D01*
X170904761Y-134471071D02*
X170904761Y-132971071D01*
X171380952Y-132971071D01*
X171761904Y-134471071D02*
X171761904Y-132971071D01*
X172095238Y-132971071D02*
X172666666Y-132971071D01*
X172380952Y-134471071D02*
X172380952Y-132971071D01*
X173000000Y-133685357D02*
X173333333Y-133685357D01*
X173476190Y-134471071D02*
X173000000Y-134471071D01*
X173000000Y-132971071D01*
X173476190Y-132971071D01*
X173904761Y-134471071D02*
X173904761Y-132971071D01*
X174238095Y-134042500D01*
X174571428Y-132971071D01*
X174571428Y-134471071D01*
X175047619Y-134471071D02*
X175047619Y-132971071D01*
X175428571Y-132971071D01*
X175523809Y-133042500D01*
X175571428Y-133113928D01*
X175619047Y-133256785D01*
X175619047Y-133471071D01*
X175571428Y-133613928D01*
X175523809Y-133685357D01*
X175428571Y-133756785D01*
X175047619Y-133756785D01*
X177380952Y-134471071D02*
X177047619Y-133756785D01*
X176809523Y-134471071D02*
X176809523Y-132971071D01*
X177190476Y-132971071D01*
X177285714Y-133042500D01*
X177333333Y-133113928D01*
X177380952Y-133256785D01*
X177380952Y-133471071D01*
X177333333Y-133613928D01*
X177285714Y-133685357D01*
X177190476Y-133756785D01*
X176809523Y-133756785D01*
X177809523Y-133685357D02*
X178142857Y-133685357D01*
X178285714Y-134471071D02*
X177809523Y-134471071D01*
X177809523Y-132971071D01*
X178285714Y-132971071D01*
X178571428Y-132971071D02*
X178904761Y-134471071D01*
X179238095Y-132971071D01*
X180285714Y-134042500D02*
X180761904Y-134042500D01*
X180190476Y-134471071D02*
X180523809Y-132971071D01*
X180857142Y-134471071D01*
X169166666Y-136814642D02*
X169309523Y-136886071D01*
X169547619Y-136886071D01*
X169642857Y-136814642D01*
X169690476Y-136743214D01*
X169738095Y-136600357D01*
X169738095Y-136457500D01*
X169690476Y-136314642D01*
X169642857Y-136243214D01*
X169547619Y-136171785D01*
X169357142Y-136100357D01*
X169261904Y-136028928D01*
X169214285Y-135957500D01*
X169166666Y-135814642D01*
X169166666Y-135671785D01*
X169214285Y-135528928D01*
X169261904Y-135457500D01*
X169357142Y-135386071D01*
X169595238Y-135386071D01*
X169738095Y-135457500D01*
X170071428Y-135886071D02*
X170595238Y-135886071D01*
X170071428Y-136886071D01*
X170595238Y-136886071D01*
X170880952Y-135886071D02*
X171119047Y-136886071D01*
X171357142Y-135886071D02*
X171119047Y-136886071D01*
X171023809Y-137243214D01*
X170976190Y-137314642D01*
X170880952Y-137386071D01*
X171738095Y-136886071D02*
X171738095Y-135886071D01*
X171738095Y-136028928D02*
X171785714Y-135957500D01*
X171880952Y-135886071D01*
X172023809Y-135886071D01*
X172119047Y-135957500D01*
X172166666Y-136100357D01*
X172166666Y-136886071D01*
X172166666Y-136100357D02*
X172214285Y-135957500D01*
X172309523Y-135886071D01*
X172452380Y-135886071D01*
X172547619Y-135957500D01*
X172595238Y-136100357D01*
X172595238Y-136886071D01*
X173214285Y-136886071D02*
X173119047Y-136814642D01*
X173071428Y-136743214D01*
X173023809Y-136600357D01*
X173023809Y-136171785D01*
X173071428Y-136028928D01*
X173119047Y-135957500D01*
X173214285Y-135886071D01*
X173357142Y-135886071D01*
X173452380Y-135957500D01*
X173500000Y-136028928D01*
X173547619Y-136171785D01*
X173547619Y-136600357D01*
X173500000Y-136743214D01*
X173452380Y-136814642D01*
X173357142Y-136886071D01*
X173214285Y-136886071D01*
X173976190Y-135886071D02*
X173976190Y-136886071D01*
X173976190Y-136028928D02*
X174023809Y-135957500D01*
X174119047Y-135886071D01*
X174261904Y-135886071D01*
X174357142Y-135957500D01*
X174404761Y-136100357D01*
X174404761Y-136886071D01*
X175547619Y-135386071D02*
X176214285Y-135386071D01*
X175547619Y-136886071D01*
X176214285Y-136886071D01*
X177023809Y-136886071D02*
X177023809Y-136100357D01*
X176976190Y-135957500D01*
X176880952Y-135886071D01*
X176690476Y-135886071D01*
X176595238Y-135957500D01*
X177023809Y-136814642D02*
X176928571Y-136886071D01*
X176690476Y-136886071D01*
X176595238Y-136814642D01*
X176547619Y-136671785D01*
X176547619Y-136528928D01*
X176595238Y-136386071D01*
X176690476Y-136314642D01*
X176928571Y-136314642D01*
X177023809Y-136243214D01*
X177500000Y-136886071D02*
X177500000Y-135386071D01*
X177595238Y-136314642D02*
X177880952Y-136886071D01*
X177880952Y-135886071D02*
X177500000Y-136457500D01*
X178309523Y-136886071D02*
X178309523Y-135886071D01*
X178309523Y-136171785D02*
X178357142Y-136028928D01*
X178404761Y-135957500D01*
X178500000Y-135886071D01*
X178595238Y-135886071D01*
X179309523Y-136814642D02*
X179214285Y-136886071D01*
X179023809Y-136886071D01*
X178928571Y-136814642D01*
X178880952Y-136671785D01*
X178880952Y-136100357D01*
X178928571Y-135957500D01*
X179023809Y-135886071D01*
X179214285Y-135886071D01*
X179309523Y-135957500D01*
X179357142Y-136100357D01*
X179357142Y-136243214D01*
X178880952Y-136386071D01*
X179785714Y-135886071D02*
X179785714Y-136886071D01*
X179785714Y-136028928D02*
X179833333Y-135957500D01*
X179928571Y-135886071D01*
X180071428Y-135886071D01*
X180166666Y-135957500D01*
X180214285Y-136100357D01*
X180214285Y-136886071D01*
X180547619Y-135886071D02*
X180928571Y-135886071D01*
X180690476Y-135386071D02*
X180690476Y-136671785D01*
X180738095Y-136814642D01*
X180833333Y-136886071D01*
X180928571Y-136886071D01*
D11*
X166000000Y-81000000D02*
X166000000Y-86000000D01*
X154000000Y-86000000D02*
X154000000Y-81000000D01*
X154000000Y-86000000D02*
X148750000Y-89000000D01*
X177000000Y-57000000D02*
X177000000Y-81000000D01*
X154000000Y-81000000D02*
X143000000Y-81000000D01*
X154000000Y-81000000D02*
X166000000Y-81000000D01*
X143000000Y-57000000D02*
X177000000Y-57000000D01*
X166000000Y-86000000D02*
X154000000Y-86000000D01*
X177000000Y-81000000D02*
X166000000Y-81000000D01*
X143000000Y-81000000D02*
X143000000Y-57000000D01*
X171250000Y-89000000D02*
X166000000Y-86000000D01*
D12*
%TO.C,G\u002A\u002A\u002A*%
X194238000Y-71342571D02*
X194165428Y-71487714D01*
X194165428Y-71705428D01*
X194238000Y-71923142D01*
X194383142Y-72068285D01*
X194528285Y-72140857D01*
X194818571Y-72213428D01*
X195036285Y-72213428D01*
X195326571Y-72140857D01*
X195471714Y-72068285D01*
X195616857Y-71923142D01*
X195689428Y-71705428D01*
X195689428Y-71560285D01*
X195616857Y-71342571D01*
X195544285Y-71270000D01*
X195036285Y-71270000D01*
X195036285Y-71560285D01*
X194165428Y-70399142D02*
X194528285Y-70399142D01*
X194383142Y-70762000D02*
X194528285Y-70399142D01*
X194383142Y-70036285D01*
X194818571Y-70616857D02*
X194528285Y-70399142D01*
X194818571Y-70181428D01*
X194165428Y-69238000D02*
X194528285Y-69238000D01*
X194383142Y-69600857D02*
X194528285Y-69238000D01*
X194383142Y-68875142D01*
X194818571Y-69455714D02*
X194528285Y-69238000D01*
X194818571Y-69020285D01*
X194165428Y-68076857D02*
X194528285Y-68076857D01*
X194383142Y-68439714D02*
X194528285Y-68076857D01*
X194383142Y-67714000D01*
X194818571Y-68294571D02*
X194528285Y-68076857D01*
X194818571Y-67859142D01*
X121687428Y-69238000D02*
X121542285Y-69165428D01*
X121324571Y-69165428D01*
X121106857Y-69238000D01*
X120961714Y-69383142D01*
X120889142Y-69528285D01*
X120816571Y-69818571D01*
X120816571Y-70036285D01*
X120889142Y-70326571D01*
X120961714Y-70471714D01*
X121106857Y-70616857D01*
X121324571Y-70689428D01*
X121469714Y-70689428D01*
X121687428Y-70616857D01*
X121760000Y-70544285D01*
X121760000Y-70036285D01*
X121469714Y-70036285D01*
X122630857Y-69165428D02*
X122630857Y-69528285D01*
X122268000Y-69383142D02*
X122630857Y-69528285D01*
X122993714Y-69383142D01*
X122413142Y-69818571D02*
X122630857Y-69528285D01*
X122848571Y-69818571D01*
X123792000Y-69165428D02*
X123792000Y-69528285D01*
X123429142Y-69383142D02*
X123792000Y-69528285D01*
X124154857Y-69383142D01*
X123574285Y-69818571D02*
X123792000Y-69528285D01*
X124009714Y-69818571D01*
X124953142Y-69165428D02*
X124953142Y-69528285D01*
X124590285Y-69383142D02*
X124953142Y-69528285D01*
X125316000Y-69383142D01*
X124735428Y-69818571D02*
X124953142Y-69528285D01*
X125170857Y-69818571D01*
D11*
%TO.C,R11*%
X142444642Y-121102380D02*
X142111309Y-120626190D01*
X141873214Y-121102380D02*
X141873214Y-120102380D01*
X142254166Y-120102380D01*
X142349404Y-120150000D01*
X142397023Y-120197619D01*
X142444642Y-120292857D01*
X142444642Y-120435714D01*
X142397023Y-120530952D01*
X142349404Y-120578571D01*
X142254166Y-120626190D01*
X141873214Y-120626190D01*
X143397023Y-121102380D02*
X142825595Y-121102380D01*
X143111309Y-121102380D02*
X143111309Y-120102380D01*
X143016071Y-120245238D01*
X142920833Y-120340476D01*
X142825595Y-120388095D01*
X144349404Y-121102380D02*
X143777976Y-121102380D01*
X144063690Y-121102380D02*
X144063690Y-120102380D01*
X143968452Y-120245238D01*
X143873214Y-120340476D01*
X143777976Y-120388095D01*
%TO.C,U3*%
X139488095Y-98552380D02*
X139488095Y-99361904D01*
X139535714Y-99457142D01*
X139583333Y-99504761D01*
X139678571Y-99552380D01*
X139869047Y-99552380D01*
X139964285Y-99504761D01*
X140011904Y-99457142D01*
X140059523Y-99361904D01*
X140059523Y-98552380D01*
X140440476Y-98552380D02*
X141059523Y-98552380D01*
X140726190Y-98933333D01*
X140869047Y-98933333D01*
X140964285Y-98980952D01*
X141011904Y-99028571D01*
X141059523Y-99123809D01*
X141059523Y-99361904D01*
X141011904Y-99457142D01*
X140964285Y-99504761D01*
X140869047Y-99552380D01*
X140583333Y-99552380D01*
X140488095Y-99504761D01*
X140440476Y-99457142D01*
%TO.C,U1*%
X150875595Y-128552380D02*
X150875595Y-129361904D01*
X150923214Y-129457142D01*
X150970833Y-129504761D01*
X151066071Y-129552380D01*
X151256547Y-129552380D01*
X151351785Y-129504761D01*
X151399404Y-129457142D01*
X151447023Y-129361904D01*
X151447023Y-128552380D01*
X152447023Y-129552380D02*
X151875595Y-129552380D01*
X152161309Y-129552380D02*
X152161309Y-128552380D01*
X152066071Y-128695238D01*
X151970833Y-128790476D01*
X151875595Y-128838095D01*
%TO.C,C12*%
X151037142Y-126592857D02*
X151084761Y-126640476D01*
X151132380Y-126783333D01*
X151132380Y-126878571D01*
X151084761Y-127021428D01*
X150989523Y-127116666D01*
X150894285Y-127164285D01*
X150703809Y-127211904D01*
X150560952Y-127211904D01*
X150370476Y-127164285D01*
X150275238Y-127116666D01*
X150180000Y-127021428D01*
X150132380Y-126878571D01*
X150132380Y-126783333D01*
X150180000Y-126640476D01*
X150227619Y-126592857D01*
X151132380Y-125640476D02*
X151132380Y-126211904D01*
X151132380Y-125926190D02*
X150132380Y-125926190D01*
X150275238Y-126021428D01*
X150370476Y-126116666D01*
X150418095Y-126211904D01*
X150227619Y-125259523D02*
X150180000Y-125211904D01*
X150132380Y-125116666D01*
X150132380Y-124878571D01*
X150180000Y-124783333D01*
X150227619Y-124735714D01*
X150322857Y-124688095D01*
X150418095Y-124688095D01*
X150560952Y-124735714D01*
X151132380Y-125307142D01*
X151132380Y-124688095D01*
%TO.C,D3*%
X152261904Y-116202380D02*
X152261904Y-115202380D01*
X152500000Y-115202380D01*
X152642857Y-115250000D01*
X152738095Y-115345238D01*
X152785714Y-115440476D01*
X152833333Y-115630952D01*
X152833333Y-115773809D01*
X152785714Y-115964285D01*
X152738095Y-116059523D01*
X152642857Y-116154761D01*
X152500000Y-116202380D01*
X152261904Y-116202380D01*
X153166666Y-115202380D02*
X153785714Y-115202380D01*
X153452380Y-115583333D01*
X153595238Y-115583333D01*
X153690476Y-115630952D01*
X153738095Y-115678571D01*
X153785714Y-115773809D01*
X153785714Y-116011904D01*
X153738095Y-116107142D01*
X153690476Y-116154761D01*
X153595238Y-116202380D01*
X153309523Y-116202380D01*
X153214285Y-116154761D01*
X153166666Y-116107142D01*
%TO.C,SW3*%
X136916666Y-95904761D02*
X137059523Y-95952380D01*
X137297619Y-95952380D01*
X137392857Y-95904761D01*
X137440476Y-95857142D01*
X137488095Y-95761904D01*
X137488095Y-95666666D01*
X137440476Y-95571428D01*
X137392857Y-95523809D01*
X137297619Y-95476190D01*
X137107142Y-95428571D01*
X137011904Y-95380952D01*
X136964285Y-95333333D01*
X136916666Y-95238095D01*
X136916666Y-95142857D01*
X136964285Y-95047619D01*
X137011904Y-95000000D01*
X137107142Y-94952380D01*
X137345238Y-94952380D01*
X137488095Y-95000000D01*
X137821428Y-94952380D02*
X138059523Y-95952380D01*
X138250000Y-95238095D01*
X138440476Y-95952380D01*
X138678571Y-94952380D01*
X138964285Y-94952380D02*
X139583333Y-94952380D01*
X139250000Y-95333333D01*
X139392857Y-95333333D01*
X139488095Y-95380952D01*
X139535714Y-95428571D01*
X139583333Y-95523809D01*
X139583333Y-95761904D01*
X139535714Y-95857142D01*
X139488095Y-95904761D01*
X139392857Y-95952380D01*
X139107142Y-95952380D01*
X139011904Y-95904761D01*
X138964285Y-95857142D01*
%TO.C,R2*%
X183083333Y-100452380D02*
X182750000Y-99976190D01*
X182511904Y-100452380D02*
X182511904Y-99452380D01*
X182892857Y-99452380D01*
X182988095Y-99500000D01*
X183035714Y-99547619D01*
X183083333Y-99642857D01*
X183083333Y-99785714D01*
X183035714Y-99880952D01*
X182988095Y-99928571D01*
X182892857Y-99976190D01*
X182511904Y-99976190D01*
X183464285Y-99547619D02*
X183511904Y-99500000D01*
X183607142Y-99452380D01*
X183845238Y-99452380D01*
X183940476Y-99500000D01*
X183988095Y-99547619D01*
X184035714Y-99642857D01*
X184035714Y-99738095D01*
X183988095Y-99880952D01*
X183416666Y-100452380D01*
X184035714Y-100452380D01*
%TO.C,U6*%
X155313095Y-100177380D02*
X155313095Y-100986904D01*
X155360714Y-101082142D01*
X155408333Y-101129761D01*
X155503571Y-101177380D01*
X155694047Y-101177380D01*
X155789285Y-101129761D01*
X155836904Y-101082142D01*
X155884523Y-100986904D01*
X155884523Y-100177380D01*
X156789285Y-100177380D02*
X156598809Y-100177380D01*
X156503571Y-100225000D01*
X156455952Y-100272619D01*
X156360714Y-100415476D01*
X156313095Y-100605952D01*
X156313095Y-100986904D01*
X156360714Y-101082142D01*
X156408333Y-101129761D01*
X156503571Y-101177380D01*
X156694047Y-101177380D01*
X156789285Y-101129761D01*
X156836904Y-101082142D01*
X156884523Y-100986904D01*
X156884523Y-100748809D01*
X156836904Y-100653571D01*
X156789285Y-100605952D01*
X156694047Y-100558333D01*
X156503571Y-100558333D01*
X156408333Y-100605952D01*
X156360714Y-100653571D01*
X156313095Y-100748809D01*
%TO.C,H1*%
X134238095Y-53002380D02*
X134238095Y-52002380D01*
X134238095Y-52478571D02*
X134809523Y-52478571D01*
X134809523Y-53002380D02*
X134809523Y-52002380D01*
X135809523Y-53002380D02*
X135238095Y-53002380D01*
X135523809Y-53002380D02*
X135523809Y-52002380D01*
X135428571Y-52145238D01*
X135333333Y-52240476D01*
X135238095Y-52288095D01*
%TO.C,J1*%
X160282380Y-137833333D02*
X160996666Y-137833333D01*
X161139523Y-137880952D01*
X161234761Y-137976190D01*
X161282380Y-138119047D01*
X161282380Y-138214285D01*
X161282380Y-136833333D02*
X161282380Y-137404761D01*
X161282380Y-137119047D02*
X160282380Y-137119047D01*
X160425238Y-137214285D01*
X160520476Y-137309523D01*
X160568095Y-137404761D01*
%TO.C,R6*%
X161102380Y-133166666D02*
X160626190Y-133500000D01*
X161102380Y-133738095D02*
X160102380Y-133738095D01*
X160102380Y-133357142D01*
X160150000Y-133261904D01*
X160197619Y-133214285D01*
X160292857Y-133166666D01*
X160435714Y-133166666D01*
X160530952Y-133214285D01*
X160578571Y-133261904D01*
X160626190Y-133357142D01*
X160626190Y-133738095D01*
X160102380Y-132309523D02*
X160102380Y-132500000D01*
X160150000Y-132595238D01*
X160197619Y-132642857D01*
X160340476Y-132738095D01*
X160530952Y-132785714D01*
X160911904Y-132785714D01*
X161007142Y-132738095D01*
X161054761Y-132690476D01*
X161102380Y-132595238D01*
X161102380Y-132404761D01*
X161054761Y-132309523D01*
X161007142Y-132261904D01*
X160911904Y-132214285D01*
X160673809Y-132214285D01*
X160578571Y-132261904D01*
X160530952Y-132309523D01*
X160483333Y-132404761D01*
X160483333Y-132595238D01*
X160530952Y-132690476D01*
X160578571Y-132738095D01*
X160673809Y-132785714D01*
%TO.C,H2*%
X139452380Y-135761904D02*
X138452380Y-135761904D01*
X138928571Y-135761904D02*
X138928571Y-135190476D01*
X139452380Y-135190476D02*
X138452380Y-135190476D01*
X138547619Y-134761904D02*
X138500000Y-134714285D01*
X138452380Y-134619047D01*
X138452380Y-134380952D01*
X138500000Y-134285714D01*
X138547619Y-134238095D01*
X138642857Y-134190476D01*
X138738095Y-134190476D01*
X138880952Y-134238095D01*
X139452380Y-134809523D01*
X139452380Y-134190476D01*
%TO.C,C4*%
X150833333Y-99857142D02*
X150785714Y-99904761D01*
X150642857Y-99952380D01*
X150547619Y-99952380D01*
X150404761Y-99904761D01*
X150309523Y-99809523D01*
X150261904Y-99714285D01*
X150214285Y-99523809D01*
X150214285Y-99380952D01*
X150261904Y-99190476D01*
X150309523Y-99095238D01*
X150404761Y-99000000D01*
X150547619Y-98952380D01*
X150642857Y-98952380D01*
X150785714Y-99000000D01*
X150833333Y-99047619D01*
X151690476Y-99285714D02*
X151690476Y-99952380D01*
X151452380Y-98904761D02*
X151214285Y-99619047D01*
X151833333Y-99619047D01*
%TO.C,R10*%
X145519642Y-102602380D02*
X145186309Y-102126190D01*
X144948214Y-102602380D02*
X144948214Y-101602380D01*
X145329166Y-101602380D01*
X145424404Y-101650000D01*
X145472023Y-101697619D01*
X145519642Y-101792857D01*
X145519642Y-101935714D01*
X145472023Y-102030952D01*
X145424404Y-102078571D01*
X145329166Y-102126190D01*
X144948214Y-102126190D01*
X146472023Y-102602380D02*
X145900595Y-102602380D01*
X146186309Y-102602380D02*
X146186309Y-101602380D01*
X146091071Y-101745238D01*
X145995833Y-101840476D01*
X145900595Y-101888095D01*
X147091071Y-101602380D02*
X147186309Y-101602380D01*
X147281547Y-101650000D01*
X147329166Y-101697619D01*
X147376785Y-101792857D01*
X147424404Y-101983333D01*
X147424404Y-102221428D01*
X147376785Y-102411904D01*
X147329166Y-102507142D01*
X147281547Y-102554761D01*
X147186309Y-102602380D01*
X147091071Y-102602380D01*
X146995833Y-102554761D01*
X146948214Y-102507142D01*
X146900595Y-102411904D01*
X146852976Y-102221428D01*
X146852976Y-101983333D01*
X146900595Y-101792857D01*
X146948214Y-101697619D01*
X146995833Y-101650000D01*
X147091071Y-101602380D01*
%TO.C,C10*%
X183069642Y-83927142D02*
X183022023Y-83974761D01*
X182879166Y-84022380D01*
X182783928Y-84022380D01*
X182641071Y-83974761D01*
X182545833Y-83879523D01*
X182498214Y-83784285D01*
X182450595Y-83593809D01*
X182450595Y-83450952D01*
X182498214Y-83260476D01*
X182545833Y-83165238D01*
X182641071Y-83070000D01*
X182783928Y-83022380D01*
X182879166Y-83022380D01*
X183022023Y-83070000D01*
X183069642Y-83117619D01*
X184022023Y-84022380D02*
X183450595Y-84022380D01*
X183736309Y-84022380D02*
X183736309Y-83022380D01*
X183641071Y-83165238D01*
X183545833Y-83260476D01*
X183450595Y-83308095D01*
X184641071Y-83022380D02*
X184736309Y-83022380D01*
X184831547Y-83070000D01*
X184879166Y-83117619D01*
X184926785Y-83212857D01*
X184974404Y-83403333D01*
X184974404Y-83641428D01*
X184926785Y-83831904D01*
X184879166Y-83927142D01*
X184831547Y-83974761D01*
X184736309Y-84022380D01*
X184641071Y-84022380D01*
X184545833Y-83974761D01*
X184498214Y-83927142D01*
X184450595Y-83831904D01*
X184402976Y-83641428D01*
X184402976Y-83403333D01*
X184450595Y-83212857D01*
X184498214Y-83117619D01*
X184545833Y-83070000D01*
X184641071Y-83022380D01*
%TO.C,C5*%
X156857142Y-97216666D02*
X156904761Y-97264285D01*
X156952380Y-97407142D01*
X156952380Y-97502380D01*
X156904761Y-97645238D01*
X156809523Y-97740476D01*
X156714285Y-97788095D01*
X156523809Y-97835714D01*
X156380952Y-97835714D01*
X156190476Y-97788095D01*
X156095238Y-97740476D01*
X156000000Y-97645238D01*
X155952380Y-97502380D01*
X155952380Y-97407142D01*
X156000000Y-97264285D01*
X156047619Y-97216666D01*
X155952380Y-96311904D02*
X155952380Y-96788095D01*
X156428571Y-96835714D01*
X156380952Y-96788095D01*
X156333333Y-96692857D01*
X156333333Y-96454761D01*
X156380952Y-96359523D01*
X156428571Y-96311904D01*
X156523809Y-96264285D01*
X156761904Y-96264285D01*
X156857142Y-96311904D01*
X156904761Y-96359523D01*
X156952380Y-96454761D01*
X156952380Y-96692857D01*
X156904761Y-96788095D01*
X156857142Y-96835714D01*
%TO.C,R4*%
X156102380Y-110079166D02*
X155626190Y-110412500D01*
X156102380Y-110650595D02*
X155102380Y-110650595D01*
X155102380Y-110269642D01*
X155150000Y-110174404D01*
X155197619Y-110126785D01*
X155292857Y-110079166D01*
X155435714Y-110079166D01*
X155530952Y-110126785D01*
X155578571Y-110174404D01*
X155626190Y-110269642D01*
X155626190Y-110650595D01*
X155435714Y-109222023D02*
X156102380Y-109222023D01*
X155054761Y-109460119D02*
X155769047Y-109698214D01*
X155769047Y-109079166D01*
%TO.C,R7*%
X140333333Y-84952380D02*
X140000000Y-84476190D01*
X139761904Y-84952380D02*
X139761904Y-83952380D01*
X140142857Y-83952380D01*
X140238095Y-84000000D01*
X140285714Y-84047619D01*
X140333333Y-84142857D01*
X140333333Y-84285714D01*
X140285714Y-84380952D01*
X140238095Y-84428571D01*
X140142857Y-84476190D01*
X139761904Y-84476190D01*
X140666666Y-83952380D02*
X141333333Y-83952380D01*
X140904761Y-84952380D01*
%TO.C,C18*%
X147357142Y-132892857D02*
X147404761Y-132940476D01*
X147452380Y-133083333D01*
X147452380Y-133178571D01*
X147404761Y-133321428D01*
X147309523Y-133416666D01*
X147214285Y-133464285D01*
X147023809Y-133511904D01*
X146880952Y-133511904D01*
X146690476Y-133464285D01*
X146595238Y-133416666D01*
X146500000Y-133321428D01*
X146452380Y-133178571D01*
X146452380Y-133083333D01*
X146500000Y-132940476D01*
X146547619Y-132892857D01*
X147452380Y-131940476D02*
X147452380Y-132511904D01*
X147452380Y-132226190D02*
X146452380Y-132226190D01*
X146595238Y-132321428D01*
X146690476Y-132416666D01*
X146738095Y-132511904D01*
X146880952Y-131369047D02*
X146833333Y-131464285D01*
X146785714Y-131511904D01*
X146690476Y-131559523D01*
X146642857Y-131559523D01*
X146547619Y-131511904D01*
X146500000Y-131464285D01*
X146452380Y-131369047D01*
X146452380Y-131178571D01*
X146500000Y-131083333D01*
X146547619Y-131035714D01*
X146642857Y-130988095D01*
X146690476Y-130988095D01*
X146785714Y-131035714D01*
X146833333Y-131083333D01*
X146880952Y-131178571D01*
X146880952Y-131369047D01*
X146928571Y-131464285D01*
X146976190Y-131511904D01*
X147071428Y-131559523D01*
X147261904Y-131559523D01*
X147357142Y-131511904D01*
X147404761Y-131464285D01*
X147452380Y-131369047D01*
X147452380Y-131178571D01*
X147404761Y-131083333D01*
X147357142Y-131035714D01*
X147261904Y-130988095D01*
X147071428Y-130988095D01*
X146976190Y-131035714D01*
X146928571Y-131083333D01*
X146880952Y-131178571D01*
%TO.C,R1*%
X174833333Y-89302380D02*
X174500000Y-88826190D01*
X174261904Y-89302380D02*
X174261904Y-88302380D01*
X174642857Y-88302380D01*
X174738095Y-88350000D01*
X174785714Y-88397619D01*
X174833333Y-88492857D01*
X174833333Y-88635714D01*
X174785714Y-88730952D01*
X174738095Y-88778571D01*
X174642857Y-88826190D01*
X174261904Y-88826190D01*
X175785714Y-89302380D02*
X175214285Y-89302380D01*
X175500000Y-89302380D02*
X175500000Y-88302380D01*
X175404761Y-88445238D01*
X175309523Y-88540476D01*
X175214285Y-88588095D01*
%TO.C,SW2*%
X169154761Y-107333333D02*
X169202380Y-107190476D01*
X169202380Y-106952380D01*
X169154761Y-106857142D01*
X169107142Y-106809523D01*
X169011904Y-106761904D01*
X168916666Y-106761904D01*
X168821428Y-106809523D01*
X168773809Y-106857142D01*
X168726190Y-106952380D01*
X168678571Y-107142857D01*
X168630952Y-107238095D01*
X168583333Y-107285714D01*
X168488095Y-107333333D01*
X168392857Y-107333333D01*
X168297619Y-107285714D01*
X168250000Y-107238095D01*
X168202380Y-107142857D01*
X168202380Y-106904761D01*
X168250000Y-106761904D01*
X168202380Y-106428571D02*
X169202380Y-106190476D01*
X168488095Y-106000000D01*
X169202380Y-105809523D01*
X168202380Y-105571428D01*
X168297619Y-105238095D02*
X168250000Y-105190476D01*
X168202380Y-105095238D01*
X168202380Y-104857142D01*
X168250000Y-104761904D01*
X168297619Y-104714285D01*
X168392857Y-104666666D01*
X168488095Y-104666666D01*
X168630952Y-104714285D01*
X169202380Y-105285714D01*
X169202380Y-104666666D01*
%TO.C,D5*%
X133111904Y-107452380D02*
X133111904Y-106452380D01*
X133350000Y-106452380D01*
X133492857Y-106500000D01*
X133588095Y-106595238D01*
X133635714Y-106690476D01*
X133683333Y-106880952D01*
X133683333Y-107023809D01*
X133635714Y-107214285D01*
X133588095Y-107309523D01*
X133492857Y-107404761D01*
X133350000Y-107452380D01*
X133111904Y-107452380D01*
X134588095Y-106452380D02*
X134111904Y-106452380D01*
X134064285Y-106928571D01*
X134111904Y-106880952D01*
X134207142Y-106833333D01*
X134445238Y-106833333D01*
X134540476Y-106880952D01*
X134588095Y-106928571D01*
X134635714Y-107023809D01*
X134635714Y-107261904D01*
X134588095Y-107357142D01*
X134540476Y-107404761D01*
X134445238Y-107452380D01*
X134207142Y-107452380D01*
X134111904Y-107404761D01*
X134064285Y-107357142D01*
%TO.C,C3*%
X145857142Y-89666666D02*
X145904761Y-89714285D01*
X145952380Y-89857142D01*
X145952380Y-89952380D01*
X145904761Y-90095238D01*
X145809523Y-90190476D01*
X145714285Y-90238095D01*
X145523809Y-90285714D01*
X145380952Y-90285714D01*
X145190476Y-90238095D01*
X145095238Y-90190476D01*
X145000000Y-90095238D01*
X144952380Y-89952380D01*
X144952380Y-89857142D01*
X145000000Y-89714285D01*
X145047619Y-89666666D01*
X144952380Y-89333333D02*
X144952380Y-88714285D01*
X145333333Y-89047619D01*
X145333333Y-88904761D01*
X145380952Y-88809523D01*
X145428571Y-88761904D01*
X145523809Y-88714285D01*
X145761904Y-88714285D01*
X145857142Y-88761904D01*
X145904761Y-88809523D01*
X145952380Y-88904761D01*
X145952380Y-89190476D01*
X145904761Y-89285714D01*
X145857142Y-89333333D01*
%TO.C,R5*%
X156102380Y-113579166D02*
X155626190Y-113912500D01*
X156102380Y-114150595D02*
X155102380Y-114150595D01*
X155102380Y-113769642D01*
X155150000Y-113674404D01*
X155197619Y-113626785D01*
X155292857Y-113579166D01*
X155435714Y-113579166D01*
X155530952Y-113626785D01*
X155578571Y-113674404D01*
X155626190Y-113769642D01*
X155626190Y-114150595D01*
X155102380Y-112674404D02*
X155102380Y-113150595D01*
X155578571Y-113198214D01*
X155530952Y-113150595D01*
X155483333Y-113055357D01*
X155483333Y-112817261D01*
X155530952Y-112722023D01*
X155578571Y-112674404D01*
X155673809Y-112626785D01*
X155911904Y-112626785D01*
X156007142Y-112674404D01*
X156054761Y-112722023D01*
X156102380Y-112817261D01*
X156102380Y-113055357D01*
X156054761Y-113150595D01*
X156007142Y-113198214D01*
%TO.C,D4*%
X148261904Y-116202380D02*
X148261904Y-115202380D01*
X148500000Y-115202380D01*
X148642857Y-115250000D01*
X148738095Y-115345238D01*
X148785714Y-115440476D01*
X148833333Y-115630952D01*
X148833333Y-115773809D01*
X148785714Y-115964285D01*
X148738095Y-116059523D01*
X148642857Y-116154761D01*
X148500000Y-116202380D01*
X148261904Y-116202380D01*
X149690476Y-115535714D02*
X149690476Y-116202380D01*
X149452380Y-115154761D02*
X149214285Y-115869047D01*
X149833333Y-115869047D01*
%TO.C,R9*%
X147833333Y-95039880D02*
X147500000Y-94563690D01*
X147261904Y-95039880D02*
X147261904Y-94039880D01*
X147642857Y-94039880D01*
X147738095Y-94087500D01*
X147785714Y-94135119D01*
X147833333Y-94230357D01*
X147833333Y-94373214D01*
X147785714Y-94468452D01*
X147738095Y-94516071D01*
X147642857Y-94563690D01*
X147261904Y-94563690D01*
X148309523Y-95039880D02*
X148500000Y-95039880D01*
X148595238Y-94992261D01*
X148642857Y-94944642D01*
X148738095Y-94801785D01*
X148785714Y-94611309D01*
X148785714Y-94230357D01*
X148738095Y-94135119D01*
X148690476Y-94087500D01*
X148595238Y-94039880D01*
X148404761Y-94039880D01*
X148309523Y-94087500D01*
X148261904Y-94135119D01*
X148214285Y-94230357D01*
X148214285Y-94468452D01*
X148261904Y-94563690D01*
X148309523Y-94611309D01*
X148404761Y-94658928D01*
X148595238Y-94658928D01*
X148690476Y-94611309D01*
X148738095Y-94563690D01*
X148785714Y-94468452D01*
%TO.C,C9*%
X136333333Y-84857142D02*
X136285714Y-84904761D01*
X136142857Y-84952380D01*
X136047619Y-84952380D01*
X135904761Y-84904761D01*
X135809523Y-84809523D01*
X135761904Y-84714285D01*
X135714285Y-84523809D01*
X135714285Y-84380952D01*
X135761904Y-84190476D01*
X135809523Y-84095238D01*
X135904761Y-84000000D01*
X136047619Y-83952380D01*
X136142857Y-83952380D01*
X136285714Y-84000000D01*
X136333333Y-84047619D01*
X136809523Y-84952380D02*
X137000000Y-84952380D01*
X137095238Y-84904761D01*
X137142857Y-84857142D01*
X137238095Y-84714285D01*
X137285714Y-84523809D01*
X137285714Y-84142857D01*
X137238095Y-84047619D01*
X137190476Y-84000000D01*
X137095238Y-83952380D01*
X136904761Y-83952380D01*
X136809523Y-84000000D01*
X136761904Y-84047619D01*
X136714285Y-84142857D01*
X136714285Y-84380952D01*
X136761904Y-84476190D01*
X136809523Y-84523809D01*
X136904761Y-84571428D01*
X137095238Y-84571428D01*
X137190476Y-84523809D01*
X137238095Y-84476190D01*
X137285714Y-84380952D01*
%TO.C,R14*%
X145952380Y-116892857D02*
X145476190Y-117226190D01*
X145952380Y-117464285D02*
X144952380Y-117464285D01*
X144952380Y-117083333D01*
X145000000Y-116988095D01*
X145047619Y-116940476D01*
X145142857Y-116892857D01*
X145285714Y-116892857D01*
X145380952Y-116940476D01*
X145428571Y-116988095D01*
X145476190Y-117083333D01*
X145476190Y-117464285D01*
X145952380Y-115940476D02*
X145952380Y-116511904D01*
X145952380Y-116226190D02*
X144952380Y-116226190D01*
X145095238Y-116321428D01*
X145190476Y-116416666D01*
X145238095Y-116511904D01*
X145285714Y-115083333D02*
X145952380Y-115083333D01*
X144904761Y-115321428D02*
X145619047Y-115559523D01*
X145619047Y-114940476D01*
%TO.C,C7*%
X182037142Y-103216666D02*
X182084761Y-103264285D01*
X182132380Y-103407142D01*
X182132380Y-103502380D01*
X182084761Y-103645238D01*
X181989523Y-103740476D01*
X181894285Y-103788095D01*
X181703809Y-103835714D01*
X181560952Y-103835714D01*
X181370476Y-103788095D01*
X181275238Y-103740476D01*
X181180000Y-103645238D01*
X181132380Y-103502380D01*
X181132380Y-103407142D01*
X181180000Y-103264285D01*
X181227619Y-103216666D01*
X181132380Y-102883333D02*
X181132380Y-102216666D01*
X182132380Y-102645238D01*
%TO.C,D2*%
X143261904Y-94789880D02*
X143261904Y-93789880D01*
X143500000Y-93789880D01*
X143642857Y-93837500D01*
X143738095Y-93932738D01*
X143785714Y-94027976D01*
X143833333Y-94218452D01*
X143833333Y-94361309D01*
X143785714Y-94551785D01*
X143738095Y-94647023D01*
X143642857Y-94742261D01*
X143500000Y-94789880D01*
X143261904Y-94789880D01*
X144214285Y-93885119D02*
X144261904Y-93837500D01*
X144357142Y-93789880D01*
X144595238Y-93789880D01*
X144690476Y-93837500D01*
X144738095Y-93885119D01*
X144785714Y-93980357D01*
X144785714Y-94075595D01*
X144738095Y-94218452D01*
X144166666Y-94789880D01*
X144785714Y-94789880D01*
%TO.C,C6*%
X170283333Y-94677142D02*
X170235714Y-94724761D01*
X170092857Y-94772380D01*
X169997619Y-94772380D01*
X169854761Y-94724761D01*
X169759523Y-94629523D01*
X169711904Y-94534285D01*
X169664285Y-94343809D01*
X169664285Y-94200952D01*
X169711904Y-94010476D01*
X169759523Y-93915238D01*
X169854761Y-93820000D01*
X169997619Y-93772380D01*
X170092857Y-93772380D01*
X170235714Y-93820000D01*
X170283333Y-93867619D01*
X171140476Y-93772380D02*
X170950000Y-93772380D01*
X170854761Y-93820000D01*
X170807142Y-93867619D01*
X170711904Y-94010476D01*
X170664285Y-94200952D01*
X170664285Y-94581904D01*
X170711904Y-94677142D01*
X170759523Y-94724761D01*
X170854761Y-94772380D01*
X171045238Y-94772380D01*
X171140476Y-94724761D01*
X171188095Y-94677142D01*
X171235714Y-94581904D01*
X171235714Y-94343809D01*
X171188095Y-94248571D01*
X171140476Y-94200952D01*
X171045238Y-94153333D01*
X170854761Y-94153333D01*
X170759523Y-94200952D01*
X170711904Y-94248571D01*
X170664285Y-94343809D01*
%TO.C,JP1*%
X164252380Y-97833333D02*
X164966666Y-97833333D01*
X165109523Y-97880952D01*
X165204761Y-97976190D01*
X165252380Y-98119047D01*
X165252380Y-98214285D01*
X165252380Y-97357142D02*
X164252380Y-97357142D01*
X164252380Y-96976190D01*
X164300000Y-96880952D01*
X164347619Y-96833333D01*
X164442857Y-96785714D01*
X164585714Y-96785714D01*
X164680952Y-96833333D01*
X164728571Y-96880952D01*
X164776190Y-96976190D01*
X164776190Y-97357142D01*
X165252380Y-95833333D02*
X165252380Y-96404761D01*
X165252380Y-96119047D02*
X164252380Y-96119047D01*
X164395238Y-96214285D01*
X164490476Y-96309523D01*
X164538095Y-96404761D01*
%TO.C,C17*%
X151107142Y-103537142D02*
X151059523Y-103584761D01*
X150916666Y-103632380D01*
X150821428Y-103632380D01*
X150678571Y-103584761D01*
X150583333Y-103489523D01*
X150535714Y-103394285D01*
X150488095Y-103203809D01*
X150488095Y-103060952D01*
X150535714Y-102870476D01*
X150583333Y-102775238D01*
X150678571Y-102680000D01*
X150821428Y-102632380D01*
X150916666Y-102632380D01*
X151059523Y-102680000D01*
X151107142Y-102727619D01*
X152059523Y-103632380D02*
X151488095Y-103632380D01*
X151773809Y-103632380D02*
X151773809Y-102632380D01*
X151678571Y-102775238D01*
X151583333Y-102870476D01*
X151488095Y-102918095D01*
X152392857Y-102632380D02*
X153059523Y-102632380D01*
X152630952Y-103632380D01*
%TO.C,R15*%
X178952380Y-97782421D02*
X178476190Y-98115754D01*
X178952380Y-98353849D02*
X177952380Y-98353849D01*
X177952380Y-97972897D01*
X178000000Y-97877659D01*
X178047619Y-97830040D01*
X178142857Y-97782421D01*
X178285714Y-97782421D01*
X178380952Y-97830040D01*
X178428571Y-97877659D01*
X178476190Y-97972897D01*
X178476190Y-98353849D01*
X178952380Y-96830040D02*
X178952380Y-97401468D01*
X178952380Y-97115754D02*
X177952380Y-97115754D01*
X178095238Y-97210992D01*
X178190476Y-97306230D01*
X178238095Y-97401468D01*
X177952380Y-95925278D02*
X177952380Y-96401468D01*
X178428571Y-96449087D01*
X178380952Y-96401468D01*
X178333333Y-96306230D01*
X178333333Y-96068135D01*
X178380952Y-95972897D01*
X178428571Y-95925278D01*
X178523809Y-95877659D01*
X178761904Y-95877659D01*
X178857142Y-95925278D01*
X178904761Y-95972897D01*
X178952380Y-96068135D01*
X178952380Y-96306230D01*
X178904761Y-96401468D01*
X178857142Y-96449087D01*
%TO.C,C8*%
X170083333Y-105857142D02*
X170035714Y-105904761D01*
X169892857Y-105952380D01*
X169797619Y-105952380D01*
X169654761Y-105904761D01*
X169559523Y-105809523D01*
X169511904Y-105714285D01*
X169464285Y-105523809D01*
X169464285Y-105380952D01*
X169511904Y-105190476D01*
X169559523Y-105095238D01*
X169654761Y-105000000D01*
X169797619Y-104952380D01*
X169892857Y-104952380D01*
X170035714Y-105000000D01*
X170083333Y-105047619D01*
X170654761Y-105380952D02*
X170559523Y-105333333D01*
X170511904Y-105285714D01*
X170464285Y-105190476D01*
X170464285Y-105142857D01*
X170511904Y-105047619D01*
X170559523Y-105000000D01*
X170654761Y-104952380D01*
X170845238Y-104952380D01*
X170940476Y-105000000D01*
X170988095Y-105047619D01*
X171035714Y-105142857D01*
X171035714Y-105190476D01*
X170988095Y-105285714D01*
X170940476Y-105333333D01*
X170845238Y-105380952D01*
X170654761Y-105380952D01*
X170559523Y-105428571D01*
X170511904Y-105476190D01*
X170464285Y-105571428D01*
X170464285Y-105761904D01*
X170511904Y-105857142D01*
X170559523Y-105904761D01*
X170654761Y-105952380D01*
X170845238Y-105952380D01*
X170940476Y-105904761D01*
X170988095Y-105857142D01*
X171035714Y-105761904D01*
X171035714Y-105571428D01*
X170988095Y-105476190D01*
X170940476Y-105428571D01*
X170845238Y-105380952D01*
%TO.C,SW4*%
X187404761Y-92333333D02*
X187452380Y-92190476D01*
X187452380Y-91952380D01*
X187404761Y-91857142D01*
X187357142Y-91809523D01*
X187261904Y-91761904D01*
X187166666Y-91761904D01*
X187071428Y-91809523D01*
X187023809Y-91857142D01*
X186976190Y-91952380D01*
X186928571Y-92142857D01*
X186880952Y-92238095D01*
X186833333Y-92285714D01*
X186738095Y-92333333D01*
X186642857Y-92333333D01*
X186547619Y-92285714D01*
X186500000Y-92238095D01*
X186452380Y-92142857D01*
X186452380Y-91904761D01*
X186500000Y-91761904D01*
X186452380Y-91428571D02*
X187452380Y-91190476D01*
X186738095Y-91000000D01*
X187452380Y-90809523D01*
X186452380Y-90571428D01*
X186785714Y-89761904D02*
X187452380Y-89761904D01*
X186404761Y-90000000D02*
X187119047Y-90238095D01*
X187119047Y-89619047D01*
%TO.C,R3*%
X172102380Y-98416666D02*
X171626190Y-98750000D01*
X172102380Y-98988095D02*
X171102380Y-98988095D01*
X171102380Y-98607142D01*
X171150000Y-98511904D01*
X171197619Y-98464285D01*
X171292857Y-98416666D01*
X171435714Y-98416666D01*
X171530952Y-98464285D01*
X171578571Y-98511904D01*
X171626190Y-98607142D01*
X171626190Y-98988095D01*
X171102380Y-98083333D02*
X171102380Y-97464285D01*
X171483333Y-97797619D01*
X171483333Y-97654761D01*
X171530952Y-97559523D01*
X171578571Y-97511904D01*
X171673809Y-97464285D01*
X171911904Y-97464285D01*
X172007142Y-97511904D01*
X172054761Y-97559523D01*
X172102380Y-97654761D01*
X172102380Y-97940476D01*
X172054761Y-98035714D01*
X172007142Y-98083333D01*
%TO.C,R13*%
X148217578Y-107702380D02*
X147884245Y-107226190D01*
X147646150Y-107702380D02*
X147646150Y-106702380D01*
X148027102Y-106702380D01*
X148122340Y-106750000D01*
X148169959Y-106797619D01*
X148217578Y-106892857D01*
X148217578Y-107035714D01*
X148169959Y-107130952D01*
X148122340Y-107178571D01*
X148027102Y-107226190D01*
X147646150Y-107226190D01*
X149169959Y-107702380D02*
X148598531Y-107702380D01*
X148884245Y-107702380D02*
X148884245Y-106702380D01*
X148789007Y-106845238D01*
X148693769Y-106940476D01*
X148598531Y-106988095D01*
X149503293Y-106702380D02*
X150122340Y-106702380D01*
X149789007Y-107083333D01*
X149931864Y-107083333D01*
X150027102Y-107130952D01*
X150074721Y-107178571D01*
X150122340Y-107273809D01*
X150122340Y-107511904D01*
X150074721Y-107607142D01*
X150027102Y-107654761D01*
X149931864Y-107702380D01*
X149646150Y-107702380D01*
X149550912Y-107654761D01*
X149503293Y-107607142D01*
%TO.C,TH1*%
X174464285Y-97452380D02*
X175035714Y-97452380D01*
X174750000Y-98452380D02*
X174750000Y-97452380D01*
X175369047Y-98452380D02*
X175369047Y-97452380D01*
X175369047Y-97928571D02*
X175940476Y-97928571D01*
X175940476Y-98452380D02*
X175940476Y-97452380D01*
X176940476Y-98452380D02*
X176369047Y-98452380D01*
X176654761Y-98452380D02*
X176654761Y-97452380D01*
X176559523Y-97595238D01*
X176464285Y-97690476D01*
X176369047Y-97738095D01*
%TO.C,DS1*%
X149785714Y-86952380D02*
X149785714Y-85952380D01*
X150023809Y-85952380D01*
X150166666Y-86000000D01*
X150261904Y-86095238D01*
X150309523Y-86190476D01*
X150357142Y-86380952D01*
X150357142Y-86523809D01*
X150309523Y-86714285D01*
X150261904Y-86809523D01*
X150166666Y-86904761D01*
X150023809Y-86952380D01*
X149785714Y-86952380D01*
X150738095Y-86904761D02*
X150880952Y-86952380D01*
X151119047Y-86952380D01*
X151214285Y-86904761D01*
X151261904Y-86857142D01*
X151309523Y-86761904D01*
X151309523Y-86666666D01*
X151261904Y-86571428D01*
X151214285Y-86523809D01*
X151119047Y-86476190D01*
X150928571Y-86428571D01*
X150833333Y-86380952D01*
X150785714Y-86333333D01*
X150738095Y-86238095D01*
X150738095Y-86142857D01*
X150785714Y-86047619D01*
X150833333Y-86000000D01*
X150928571Y-85952380D01*
X151166666Y-85952380D01*
X151309523Y-86000000D01*
X152261904Y-86952380D02*
X151690476Y-86952380D01*
X151976190Y-86952380D02*
X151976190Y-85952380D01*
X151880952Y-86095238D01*
X151785714Y-86190476D01*
X151690476Y-86238095D01*
%TO.C,R8*%
X179495833Y-84052380D02*
X179162500Y-83576190D01*
X178924404Y-84052380D02*
X178924404Y-83052380D01*
X179305357Y-83052380D01*
X179400595Y-83100000D01*
X179448214Y-83147619D01*
X179495833Y-83242857D01*
X179495833Y-83385714D01*
X179448214Y-83480952D01*
X179400595Y-83528571D01*
X179305357Y-83576190D01*
X178924404Y-83576190D01*
X180067261Y-83480952D02*
X179972023Y-83433333D01*
X179924404Y-83385714D01*
X179876785Y-83290476D01*
X179876785Y-83242857D01*
X179924404Y-83147619D01*
X179972023Y-83100000D01*
X180067261Y-83052380D01*
X180257738Y-83052380D01*
X180352976Y-83100000D01*
X180400595Y-83147619D01*
X180448214Y-83242857D01*
X180448214Y-83290476D01*
X180400595Y-83385714D01*
X180352976Y-83433333D01*
X180257738Y-83480952D01*
X180067261Y-83480952D01*
X179972023Y-83528571D01*
X179924404Y-83576190D01*
X179876785Y-83671428D01*
X179876785Y-83861904D01*
X179924404Y-83957142D01*
X179972023Y-84004761D01*
X180067261Y-84052380D01*
X180257738Y-84052380D01*
X180352976Y-84004761D01*
X180400595Y-83957142D01*
X180448214Y-83861904D01*
X180448214Y-83671428D01*
X180400595Y-83576190D01*
X180352976Y-83528571D01*
X180257738Y-83480952D01*
%TO.C,SW5*%
X136916666Y-121154761D02*
X137059523Y-121202380D01*
X137297619Y-121202380D01*
X137392857Y-121154761D01*
X137440476Y-121107142D01*
X137488095Y-121011904D01*
X137488095Y-120916666D01*
X137440476Y-120821428D01*
X137392857Y-120773809D01*
X137297619Y-120726190D01*
X137107142Y-120678571D01*
X137011904Y-120630952D01*
X136964285Y-120583333D01*
X136916666Y-120488095D01*
X136916666Y-120392857D01*
X136964285Y-120297619D01*
X137011904Y-120250000D01*
X137107142Y-120202380D01*
X137345238Y-120202380D01*
X137488095Y-120250000D01*
X137821428Y-120202380D02*
X138059523Y-121202380D01*
X138250000Y-120488095D01*
X138440476Y-121202380D01*
X138678571Y-120202380D01*
X139535714Y-120202380D02*
X139059523Y-120202380D01*
X139011904Y-120678571D01*
X139059523Y-120630952D01*
X139154761Y-120583333D01*
X139392857Y-120583333D01*
X139488095Y-120630952D01*
X139535714Y-120678571D01*
X139583333Y-120773809D01*
X139583333Y-121011904D01*
X139535714Y-121107142D01*
X139488095Y-121154761D01*
X139392857Y-121202380D01*
X139154761Y-121202380D01*
X139059523Y-121154761D01*
X139011904Y-121107142D01*
%TO.C,Q1*%
X142129761Y-104532619D02*
X142034523Y-104485000D01*
X141939285Y-104389761D01*
X141796428Y-104246904D01*
X141701190Y-104199285D01*
X141605952Y-104199285D01*
X141653571Y-104437380D02*
X141558333Y-104389761D01*
X141463095Y-104294523D01*
X141415476Y-104104047D01*
X141415476Y-103770714D01*
X141463095Y-103580238D01*
X141558333Y-103485000D01*
X141653571Y-103437380D01*
X141844047Y-103437380D01*
X141939285Y-103485000D01*
X142034523Y-103580238D01*
X142082142Y-103770714D01*
X142082142Y-104104047D01*
X142034523Y-104294523D01*
X141939285Y-104389761D01*
X141844047Y-104437380D01*
X141653571Y-104437380D01*
X143034523Y-104437380D02*
X142463095Y-104437380D01*
X142748809Y-104437380D02*
X142748809Y-103437380D01*
X142653571Y-103580238D01*
X142558333Y-103675476D01*
X142463095Y-103723095D01*
%TO.C,C11*%
X147557142Y-101177142D02*
X147509523Y-101224761D01*
X147366666Y-101272380D01*
X147271428Y-101272380D01*
X147128571Y-101224761D01*
X147033333Y-101129523D01*
X146985714Y-101034285D01*
X146938095Y-100843809D01*
X146938095Y-100700952D01*
X146985714Y-100510476D01*
X147033333Y-100415238D01*
X147128571Y-100320000D01*
X147271428Y-100272380D01*
X147366666Y-100272380D01*
X147509523Y-100320000D01*
X147557142Y-100367619D01*
X148509523Y-101272380D02*
X147938095Y-101272380D01*
X148223809Y-101272380D02*
X148223809Y-100272380D01*
X148128571Y-100415238D01*
X148033333Y-100510476D01*
X147938095Y-100558095D01*
X149461904Y-101272380D02*
X148890476Y-101272380D01*
X149176190Y-101272380D02*
X149176190Y-100272380D01*
X149080952Y-100415238D01*
X148985714Y-100510476D01*
X148890476Y-100558095D01*
%TO.C,C1*%
X157833333Y-99357142D02*
X157785714Y-99404761D01*
X157642857Y-99452380D01*
X157547619Y-99452380D01*
X157404761Y-99404761D01*
X157309523Y-99309523D01*
X157261904Y-99214285D01*
X157214285Y-99023809D01*
X157214285Y-98880952D01*
X157261904Y-98690476D01*
X157309523Y-98595238D01*
X157404761Y-98500000D01*
X157547619Y-98452380D01*
X157642857Y-98452380D01*
X157785714Y-98500000D01*
X157833333Y-98547619D01*
X158785714Y-99452380D02*
X158214285Y-99452380D01*
X158500000Y-99452380D02*
X158500000Y-98452380D01*
X158404761Y-98595238D01*
X158309523Y-98690476D01*
X158214285Y-98738095D01*
%TO.C,U5*%
X146852380Y-125761904D02*
X147661904Y-125761904D01*
X147757142Y-125714285D01*
X147804761Y-125666666D01*
X147852380Y-125571428D01*
X147852380Y-125380952D01*
X147804761Y-125285714D01*
X147757142Y-125238095D01*
X147661904Y-125190476D01*
X146852380Y-125190476D01*
X146852380Y-124238095D02*
X146852380Y-124714285D01*
X147328571Y-124761904D01*
X147280952Y-124714285D01*
X147233333Y-124619047D01*
X147233333Y-124380952D01*
X147280952Y-124285714D01*
X147328571Y-124238095D01*
X147423809Y-124190476D01*
X147661904Y-124190476D01*
X147757142Y-124238095D01*
X147804761Y-124285714D01*
X147852380Y-124380952D01*
X147852380Y-124619047D01*
X147804761Y-124714285D01*
X147757142Y-124761904D01*
%TO.C,H4*%
X184238095Y-51652380D02*
X184238095Y-50652380D01*
X184238095Y-51128571D02*
X184809523Y-51128571D01*
X184809523Y-51652380D02*
X184809523Y-50652380D01*
X185714285Y-50985714D02*
X185714285Y-51652380D01*
X185476190Y-50604761D02*
X185238095Y-51319047D01*
X185857142Y-51319047D01*
%TO.C,U4*%
X143100595Y-110502380D02*
X143100595Y-111311904D01*
X143148214Y-111407142D01*
X143195833Y-111454761D01*
X143291071Y-111502380D01*
X143481547Y-111502380D01*
X143576785Y-111454761D01*
X143624404Y-111407142D01*
X143672023Y-111311904D01*
X143672023Y-110502380D01*
X144576785Y-110835714D02*
X144576785Y-111502380D01*
X144338690Y-110454761D02*
X144100595Y-111169047D01*
X144719642Y-111169047D01*
%TO.C,R12*%
X145952380Y-119642857D02*
X145476190Y-119976190D01*
X145952380Y-120214285D02*
X144952380Y-120214285D01*
X144952380Y-119833333D01*
X145000000Y-119738095D01*
X145047619Y-119690476D01*
X145142857Y-119642857D01*
X145285714Y-119642857D01*
X145380952Y-119690476D01*
X145428571Y-119738095D01*
X145476190Y-119833333D01*
X145476190Y-120214285D01*
X145952380Y-118690476D02*
X145952380Y-119261904D01*
X145952380Y-118976190D02*
X144952380Y-118976190D01*
X145095238Y-119071428D01*
X145190476Y-119166666D01*
X145238095Y-119261904D01*
X145047619Y-118309523D02*
X145000000Y-118261904D01*
X144952380Y-118166666D01*
X144952380Y-117928571D01*
X145000000Y-117833333D01*
X145047619Y-117785714D01*
X145142857Y-117738095D01*
X145238095Y-117738095D01*
X145380952Y-117785714D01*
X145952380Y-118357142D01*
X145952380Y-117738095D01*
%TO.C,J2*%
X144666666Y-133202380D02*
X144666666Y-133916666D01*
X144619047Y-134059523D01*
X144523809Y-134154761D01*
X144380952Y-134202380D01*
X144285714Y-134202380D01*
X145095238Y-133297619D02*
X145142857Y-133250000D01*
X145238095Y-133202380D01*
X145476190Y-133202380D01*
X145571428Y-133250000D01*
X145619047Y-133297619D01*
X145666666Y-133392857D01*
X145666666Y-133488095D01*
X145619047Y-133630952D01*
X145047619Y-134202380D01*
X145666666Y-134202380D01*
%TO.C,C2*%
X166283333Y-98037142D02*
X166235714Y-98084761D01*
X166092857Y-98132380D01*
X165997619Y-98132380D01*
X165854761Y-98084761D01*
X165759523Y-97989523D01*
X165711904Y-97894285D01*
X165664285Y-97703809D01*
X165664285Y-97560952D01*
X165711904Y-97370476D01*
X165759523Y-97275238D01*
X165854761Y-97180000D01*
X165997619Y-97132380D01*
X166092857Y-97132380D01*
X166235714Y-97180000D01*
X166283333Y-97227619D01*
X166664285Y-97227619D02*
X166711904Y-97180000D01*
X166807142Y-97132380D01*
X167045238Y-97132380D01*
X167140476Y-97180000D01*
X167188095Y-97227619D01*
X167235714Y-97322857D01*
X167235714Y-97418095D01*
X167188095Y-97560952D01*
X166616666Y-98132380D01*
X167235714Y-98132380D01*
%TO.C,U2*%
X157533095Y-53017380D02*
X157533095Y-53826904D01*
X157580714Y-53922142D01*
X157628333Y-53969761D01*
X157723571Y-54017380D01*
X157914047Y-54017380D01*
X158009285Y-53969761D01*
X158056904Y-53922142D01*
X158104523Y-53826904D01*
X158104523Y-53017380D01*
X158533095Y-53112619D02*
X158580714Y-53065000D01*
X158675952Y-53017380D01*
X158914047Y-53017380D01*
X159009285Y-53065000D01*
X159056904Y-53112619D01*
X159104523Y-53207857D01*
X159104523Y-53303095D01*
X159056904Y-53445952D01*
X158485476Y-54017380D01*
X159104523Y-54017380D01*
%TO.C,D1*%
X163761904Y-135952380D02*
X163761904Y-134952380D01*
X164000000Y-134952380D01*
X164142857Y-135000000D01*
X164238095Y-135095238D01*
X164285714Y-135190476D01*
X164333333Y-135380952D01*
X164333333Y-135523809D01*
X164285714Y-135714285D01*
X164238095Y-135809523D01*
X164142857Y-135904761D01*
X164000000Y-135952380D01*
X163761904Y-135952380D01*
X165285714Y-135952380D02*
X164714285Y-135952380D01*
X165000000Y-135952380D02*
X165000000Y-134952380D01*
X164904761Y-135095238D01*
X164809523Y-135190476D01*
X164714285Y-135238095D01*
%TO.C,C16*%
X151607142Y-105442857D02*
X151654761Y-105490476D01*
X151702380Y-105633333D01*
X151702380Y-105728571D01*
X151654761Y-105871428D01*
X151559523Y-105966666D01*
X151464285Y-106014285D01*
X151273809Y-106061904D01*
X151130952Y-106061904D01*
X150940476Y-106014285D01*
X150845238Y-105966666D01*
X150750000Y-105871428D01*
X150702380Y-105728571D01*
X150702380Y-105633333D01*
X150750000Y-105490476D01*
X150797619Y-105442857D01*
X151702380Y-104490476D02*
X151702380Y-105061904D01*
X151702380Y-104776190D02*
X150702380Y-104776190D01*
X150845238Y-104871428D01*
X150940476Y-104966666D01*
X150988095Y-105061904D01*
X150702380Y-103633333D02*
X150702380Y-103823809D01*
X150750000Y-103919047D01*
X150797619Y-103966666D01*
X150940476Y-104061904D01*
X151130952Y-104109523D01*
X151511904Y-104109523D01*
X151607142Y-104061904D01*
X151654761Y-104014285D01*
X151702380Y-103919047D01*
X151702380Y-103728571D01*
X151654761Y-103633333D01*
X151607142Y-103585714D01*
X151511904Y-103538095D01*
X151273809Y-103538095D01*
X151178571Y-103585714D01*
X151130952Y-103633333D01*
X151083333Y-103728571D01*
X151083333Y-103919047D01*
X151130952Y-104014285D01*
X151178571Y-104061904D01*
X151273809Y-104109523D01*
%TO.C,H3*%
X184238095Y-131652380D02*
X184238095Y-130652380D01*
X184238095Y-131128571D02*
X184809523Y-131128571D01*
X184809523Y-131652380D02*
X184809523Y-130652380D01*
X185190476Y-130652380D02*
X185809523Y-130652380D01*
X185476190Y-131033333D01*
X185619047Y-131033333D01*
X185714285Y-131080952D01*
X185761904Y-131128571D01*
X185809523Y-131223809D01*
X185809523Y-131461904D01*
X185761904Y-131557142D01*
X185714285Y-131604761D01*
X185619047Y-131652380D01*
X185333333Y-131652380D01*
X185238095Y-131604761D01*
X185190476Y-131557142D01*
%TO.C,SW1*%
X179404761Y-108333333D02*
X179452380Y-108190476D01*
X179452380Y-107952380D01*
X179404761Y-107857142D01*
X179357142Y-107809523D01*
X179261904Y-107761904D01*
X179166666Y-107761904D01*
X179071428Y-107809523D01*
X179023809Y-107857142D01*
X178976190Y-107952380D01*
X178928571Y-108142857D01*
X178880952Y-108238095D01*
X178833333Y-108285714D01*
X178738095Y-108333333D01*
X178642857Y-108333333D01*
X178547619Y-108285714D01*
X178500000Y-108238095D01*
X178452380Y-108142857D01*
X178452380Y-107904761D01*
X178500000Y-107761904D01*
X178452380Y-107428571D02*
X179452380Y-107190476D01*
X178738095Y-107000000D01*
X179452380Y-106809523D01*
X178452380Y-106571428D01*
X179452380Y-105666666D02*
X179452380Y-106238095D01*
X179452380Y-105952380D02*
X178452380Y-105952380D01*
X178595238Y-106047619D01*
X178690476Y-106142857D01*
X178738095Y-106238095D01*
%TO.C,C15*%
X149937142Y-129642857D02*
X149984761Y-129690476D01*
X150032380Y-129833333D01*
X150032380Y-129928571D01*
X149984761Y-130071428D01*
X149889523Y-130166666D01*
X149794285Y-130214285D01*
X149603809Y-130261904D01*
X149460952Y-130261904D01*
X149270476Y-130214285D01*
X149175238Y-130166666D01*
X149080000Y-130071428D01*
X149032380Y-129928571D01*
X149032380Y-129833333D01*
X149080000Y-129690476D01*
X149127619Y-129642857D01*
X150032380Y-128690476D02*
X150032380Y-129261904D01*
X150032380Y-128976190D02*
X149032380Y-128976190D01*
X149175238Y-129071428D01*
X149270476Y-129166666D01*
X149318095Y-129261904D01*
X149032380Y-127785714D02*
X149032380Y-128261904D01*
X149508571Y-128309523D01*
X149460952Y-128261904D01*
X149413333Y-128166666D01*
X149413333Y-127928571D01*
X149460952Y-127833333D01*
X149508571Y-127785714D01*
X149603809Y-127738095D01*
X149841904Y-127738095D01*
X149937142Y-127785714D01*
X149984761Y-127833333D01*
X150032380Y-127928571D01*
X150032380Y-128166666D01*
X149984761Y-128261904D01*
X149937142Y-128309523D01*
%TO.C,C14*%
X148407142Y-114037142D02*
X148359523Y-114084761D01*
X148216666Y-114132380D01*
X148121428Y-114132380D01*
X147978571Y-114084761D01*
X147883333Y-113989523D01*
X147835714Y-113894285D01*
X147788095Y-113703809D01*
X147788095Y-113560952D01*
X147835714Y-113370476D01*
X147883333Y-113275238D01*
X147978571Y-113180000D01*
X148121428Y-113132380D01*
X148216666Y-113132380D01*
X148359523Y-113180000D01*
X148407142Y-113227619D01*
X149359523Y-114132380D02*
X148788095Y-114132380D01*
X149073809Y-114132380D02*
X149073809Y-113132380D01*
X148978571Y-113275238D01*
X148883333Y-113370476D01*
X148788095Y-113418095D01*
X150216666Y-113465714D02*
X150216666Y-114132380D01*
X149978571Y-113084761D02*
X149740476Y-113799047D01*
X150359523Y-113799047D01*
%TO.C,J3*%
X133666666Y-100122380D02*
X133666666Y-100836666D01*
X133619047Y-100979523D01*
X133523809Y-101074761D01*
X133380952Y-101122380D01*
X133285714Y-101122380D01*
X134047619Y-100122380D02*
X134666666Y-100122380D01*
X134333333Y-100503333D01*
X134476190Y-100503333D01*
X134571428Y-100550952D01*
X134619047Y-100598571D01*
X134666666Y-100693809D01*
X134666666Y-100931904D01*
X134619047Y-101027142D01*
X134571428Y-101074761D01*
X134476190Y-101122380D01*
X134190476Y-101122380D01*
X134095238Y-101074761D01*
X134047619Y-101027142D01*
%TO.C,C13*%
X141145890Y-133357142D02*
X141098271Y-133404761D01*
X140955414Y-133452380D01*
X140860176Y-133452380D01*
X140717319Y-133404761D01*
X140622081Y-133309523D01*
X140574462Y-133214285D01*
X140526843Y-133023809D01*
X140526843Y-132880952D01*
X140574462Y-132690476D01*
X140622081Y-132595238D01*
X140717319Y-132500000D01*
X140860176Y-132452380D01*
X140955414Y-132452380D01*
X141098271Y-132500000D01*
X141145890Y-132547619D01*
X142098271Y-133452380D02*
X141526843Y-133452380D01*
X141812557Y-133452380D02*
X141812557Y-132452380D01*
X141717319Y-132595238D01*
X141622081Y-132690476D01*
X141526843Y-132738095D01*
X142431605Y-132452380D02*
X143050652Y-132452380D01*
X142717319Y-132833333D01*
X142860176Y-132833333D01*
X142955414Y-132880952D01*
X143003033Y-132928571D01*
X143050652Y-133023809D01*
X143050652Y-133261904D01*
X143003033Y-133357142D01*
X142955414Y-133404761D01*
X142860176Y-133452380D01*
X142574462Y-133452380D01*
X142479224Y-133404761D01*
X142431605Y-133357142D01*
%TO.C,G\u002A\u002A\u002A*%
G36*
X187226273Y-67756321D02*
G01*
X187240931Y-67783137D01*
X187262931Y-67824974D01*
X187291061Y-67879494D01*
X187324112Y-67944360D01*
X187360872Y-68017233D01*
X187382370Y-68060154D01*
X187538901Y-68373445D01*
X187537776Y-68876229D01*
X187537367Y-68980513D01*
X187536641Y-69079000D01*
X187535643Y-69169310D01*
X187534412Y-69249062D01*
X187532991Y-69315875D01*
X187531421Y-69367368D01*
X187529744Y-69401160D01*
X187528358Y-69413832D01*
X187502409Y-69479130D01*
X187459296Y-69539284D01*
X187403836Y-69589195D01*
X187340845Y-69623762D01*
X187324819Y-69629308D01*
X187315449Y-69630794D01*
X187296989Y-69632176D01*
X187268778Y-69633456D01*
X187230152Y-69634639D01*
X187180450Y-69635726D01*
X187119009Y-69636721D01*
X187045167Y-69637628D01*
X186958261Y-69638449D01*
X186857629Y-69639188D01*
X186742610Y-69639848D01*
X186612539Y-69640432D01*
X186466755Y-69640943D01*
X186304596Y-69641384D01*
X186125399Y-69641759D01*
X185928503Y-69642070D01*
X185713243Y-69642322D01*
X185478959Y-69642516D01*
X185224988Y-69642657D01*
X184950667Y-69642747D01*
X184655334Y-69642790D01*
X184510905Y-69642795D01*
X181741195Y-69642795D01*
X181678388Y-69611953D01*
X181632143Y-69583740D01*
X181587908Y-69547788D01*
X181571175Y-69530663D01*
X181554037Y-69510723D01*
X181539640Y-69491779D01*
X181527746Y-69471794D01*
X181518115Y-69448731D01*
X181510509Y-69420552D01*
X181504690Y-69385221D01*
X181500417Y-69340699D01*
X181497453Y-69284949D01*
X181495558Y-69215935D01*
X181494494Y-69131619D01*
X181494021Y-69029962D01*
X181493902Y-68908929D01*
X181493899Y-68871486D01*
X181493899Y-68373445D01*
X181650430Y-68060154D01*
X181688724Y-67983853D01*
X181723977Y-67914266D01*
X181754980Y-67853731D01*
X181780523Y-67804586D01*
X181799394Y-67769167D01*
X181810384Y-67749813D01*
X181812636Y-67746862D01*
X181818743Y-67756321D01*
X181833402Y-67783137D01*
X181855402Y-67824974D01*
X181883532Y-67879494D01*
X181916583Y-67944360D01*
X181953343Y-68017233D01*
X181974841Y-68060154D01*
X182131372Y-68373445D01*
X182131372Y-69010817D01*
X186901428Y-69010817D01*
X186901428Y-68373445D01*
X187057959Y-68060154D01*
X187096253Y-67983853D01*
X187131507Y-67914266D01*
X187162510Y-67853731D01*
X187188052Y-67804586D01*
X187206923Y-67769167D01*
X187217913Y-67749813D01*
X187220165Y-67746862D01*
X187226273Y-67756321D01*
G37*
G36*
X187226226Y-65195438D02*
G01*
X187240899Y-65222255D01*
X187262911Y-65264092D01*
X187291051Y-65318613D01*
X187324109Y-65383480D01*
X187360874Y-65456354D01*
X187382370Y-65499271D01*
X187538901Y-65812562D01*
X187537776Y-66155978D01*
X187537236Y-66242365D01*
X187536244Y-66323034D01*
X187534875Y-66394986D01*
X187533203Y-66455220D01*
X187531303Y-66500735D01*
X187529250Y-66528533D01*
X187528358Y-66534213D01*
X187502765Y-66599502D01*
X187460770Y-66659021D01*
X187406993Y-66707899D01*
X187346058Y-66741264D01*
X187325632Y-66747914D01*
X187237236Y-66761597D01*
X187153983Y-66754437D01*
X187077796Y-66727260D01*
X187010599Y-66680890D01*
X186954313Y-66616154D01*
X186931721Y-66578772D01*
X186924900Y-66565282D01*
X186919425Y-66551399D01*
X186915119Y-66534595D01*
X186911802Y-66512344D01*
X186909297Y-66482118D01*
X186907426Y-66441389D01*
X186906009Y-66387629D01*
X186904868Y-66318311D01*
X186903826Y-66230908D01*
X186903239Y-66175162D01*
X186899555Y-65817957D01*
X187056961Y-65501968D01*
X187095321Y-65425305D01*
X187130656Y-65355350D01*
X187161761Y-65294435D01*
X187187433Y-65244887D01*
X187206472Y-65209037D01*
X187217672Y-65189215D01*
X187220103Y-65185980D01*
X187226226Y-65195438D01*
G37*
G36*
X187536342Y-63586802D02*
G01*
X187459694Y-63740675D01*
X187427129Y-63804607D01*
X187400073Y-63853472D01*
X187375176Y-63892321D01*
X187349084Y-63926204D01*
X187318446Y-63960170D01*
X187304353Y-63974721D01*
X187225660Y-64054896D01*
X184517359Y-65413291D01*
X181809058Y-66771687D01*
X181706184Y-66765550D01*
X181631700Y-66757620D01*
X181576171Y-66742216D01*
X181537113Y-66716741D01*
X181512048Y-66678598D01*
X181498494Y-66625190D01*
X181493970Y-66553920D01*
X181493916Y-66543341D01*
X181493899Y-66444406D01*
X184359780Y-65012076D01*
X187225660Y-63579746D01*
X187536342Y-63586802D01*
G37*
G36*
X187379533Y-60547814D02*
G01*
X187538901Y-60706898D01*
X187537957Y-61531359D01*
X187537695Y-61664657D01*
X187537232Y-61791996D01*
X187536589Y-61911602D01*
X187535785Y-62021698D01*
X187534838Y-62120511D01*
X187533770Y-62206263D01*
X187532598Y-62277181D01*
X187531343Y-62331489D01*
X187530023Y-62367411D01*
X187528659Y-62383173D01*
X187528623Y-62383297D01*
X187494578Y-62461827D01*
X187445818Y-62524254D01*
X187383333Y-62569861D01*
X187308109Y-62597928D01*
X187221134Y-62607736D01*
X187220165Y-62607740D01*
X187172616Y-62606511D01*
X187137554Y-62601106D01*
X187105579Y-62589393D01*
X187078872Y-62575680D01*
X187037104Y-62548151D01*
X186995745Y-62513669D01*
X186977155Y-62494719D01*
X186963488Y-62479223D01*
X186951571Y-62464842D01*
X186941286Y-62450033D01*
X186932512Y-62433253D01*
X186925129Y-62412962D01*
X186919017Y-62387615D01*
X186914057Y-62355672D01*
X186910128Y-62315589D01*
X186907110Y-62265824D01*
X186904884Y-62204835D01*
X186903329Y-62131080D01*
X186902326Y-62043016D01*
X186901754Y-61939101D01*
X186901494Y-61817792D01*
X186901425Y-61677548D01*
X186901428Y-61521121D01*
X186901428Y-60706898D01*
X187060797Y-60547814D01*
X187220165Y-60388731D01*
X187379533Y-60547814D01*
G37*
G36*
X184146498Y-59426568D02*
G01*
X184362600Y-59426620D01*
X184598486Y-59426687D01*
X184855053Y-59426735D01*
X184977403Y-59426741D01*
X187214944Y-59426741D01*
X187376927Y-59588995D01*
X187538910Y-59751248D01*
X187382148Y-59907731D01*
X187225385Y-60064214D01*
X182695420Y-60064214D01*
X182627774Y-60030412D01*
X182556343Y-59983700D01*
X182502523Y-59924378D01*
X182467168Y-59853810D01*
X182451131Y-59773361D01*
X182450216Y-59746844D01*
X182460437Y-59673195D01*
X182491232Y-59603730D01*
X182543197Y-59537234D01*
X182562323Y-59518322D01*
X182572790Y-59507804D01*
X182581507Y-59498117D01*
X182589371Y-59489228D01*
X182597280Y-59481103D01*
X182606129Y-59473708D01*
X182616818Y-59467008D01*
X182630242Y-59460969D01*
X182647300Y-59455558D01*
X182668888Y-59450741D01*
X182695904Y-59446483D01*
X182729245Y-59442751D01*
X182769808Y-59439510D01*
X182818491Y-59436727D01*
X182876190Y-59434367D01*
X182943803Y-59432396D01*
X183022228Y-59430781D01*
X183112361Y-59429487D01*
X183215099Y-59428480D01*
X183331341Y-59427727D01*
X183461983Y-59427192D01*
X183607923Y-59426844D01*
X183770057Y-59426646D01*
X183949283Y-59426565D01*
X184146498Y-59426568D01*
G37*
G36*
X187209020Y-77457257D02*
G01*
X187286013Y-77495932D01*
X187356316Y-77531556D01*
X187417612Y-77562930D01*
X187467585Y-77588857D01*
X187503920Y-77608139D01*
X187524301Y-77619578D01*
X187527910Y-77622197D01*
X187518458Y-77628256D01*
X187491674Y-77642868D01*
X187449915Y-77664811D01*
X187395540Y-77692863D01*
X187330906Y-77725804D01*
X187258370Y-77762412D01*
X187220241Y-77781528D01*
X186912571Y-77935439D01*
X184326883Y-77935331D01*
X181741195Y-77935224D01*
X181685117Y-77909113D01*
X181615494Y-77865355D01*
X181556678Y-77805899D01*
X181524389Y-77756545D01*
X181510691Y-77725223D01*
X181503043Y-77690925D01*
X181500014Y-77645840D01*
X181499775Y-77622198D01*
X181503435Y-77557927D01*
X181516418Y-77506107D01*
X181541728Y-77460072D01*
X181582369Y-77413160D01*
X181603000Y-77393208D01*
X181612557Y-77383478D01*
X181620187Y-77374473D01*
X181626728Y-77366164D01*
X181633017Y-77358523D01*
X181639892Y-77351520D01*
X181648191Y-77345128D01*
X181658751Y-77339317D01*
X181672410Y-77334060D01*
X181690005Y-77329326D01*
X181712374Y-77325089D01*
X181740354Y-77321319D01*
X181774783Y-77317988D01*
X181816500Y-77315066D01*
X181866340Y-77312527D01*
X181925142Y-77310340D01*
X181993743Y-77308477D01*
X182072982Y-77306910D01*
X182163695Y-77305611D01*
X182266720Y-77304549D01*
X182382894Y-77303698D01*
X182513056Y-77303028D01*
X182658043Y-77302511D01*
X182818692Y-77302118D01*
X182995841Y-77301820D01*
X183190328Y-77301590D01*
X183402990Y-77301398D01*
X183634664Y-77301215D01*
X183886189Y-77301014D01*
X184158402Y-77300765D01*
X184315662Y-77300600D01*
X186890129Y-77297738D01*
X187209020Y-77457257D01*
G37*
G36*
X187220241Y-75550449D02*
G01*
X187295817Y-75588422D01*
X187364659Y-75623332D01*
X187424411Y-75653958D01*
X187472714Y-75679080D01*
X187507210Y-75697475D01*
X187525543Y-75707924D01*
X187527910Y-75709780D01*
X187518452Y-75715820D01*
X187491620Y-75730438D01*
X187449729Y-75752434D01*
X187395096Y-75780613D01*
X187330036Y-75813776D01*
X187256863Y-75850726D01*
X187208931Y-75874764D01*
X186889951Y-76034327D01*
X181741195Y-76028515D01*
X181678388Y-75997673D01*
X181608484Y-75952301D01*
X181554076Y-75894074D01*
X181516506Y-75826087D01*
X181497120Y-75751438D01*
X181497261Y-75673224D01*
X181511397Y-75612882D01*
X181538274Y-75559513D01*
X181580138Y-75505899D01*
X181631053Y-75458536D01*
X181683147Y-75424877D01*
X181740015Y-75396538D01*
X186912571Y-75396538D01*
X187220241Y-75550449D01*
G37*
G36*
X187211922Y-73947751D02*
G01*
X187288602Y-73986036D01*
X187358570Y-74021304D01*
X187419494Y-74052353D01*
X187469043Y-74077983D01*
X187504885Y-74096990D01*
X187524690Y-74108175D01*
X187527910Y-74110601D01*
X187518441Y-74116715D01*
X187491587Y-74131348D01*
X187449679Y-74153299D01*
X187395048Y-74181365D01*
X187330026Y-74214344D01*
X187256944Y-74251037D01*
X187211922Y-74273477D01*
X186895933Y-74430553D01*
X184313068Y-74427198D01*
X181730204Y-74423842D01*
X181677876Y-74397845D01*
X181623908Y-74362051D01*
X181573448Y-74312625D01*
X181532637Y-74256507D01*
X181509917Y-74208110D01*
X181496854Y-74140884D01*
X181498408Y-74069181D01*
X181514079Y-74002458D01*
X181521753Y-73984206D01*
X181550300Y-73939280D01*
X181591657Y-73892175D01*
X181638723Y-73850020D01*
X181684395Y-73819948D01*
X181686240Y-73819024D01*
X181691330Y-73816667D01*
X181697223Y-73814485D01*
X181704762Y-73812471D01*
X181714789Y-73810617D01*
X181728146Y-73808915D01*
X181745675Y-73807358D01*
X181768217Y-73805936D01*
X181796615Y-73804641D01*
X181831711Y-73803467D01*
X181874347Y-73802405D01*
X181925364Y-73801446D01*
X181985606Y-73800584D01*
X182055913Y-73799809D01*
X182137128Y-73799114D01*
X182230093Y-73798491D01*
X182335650Y-73797932D01*
X182454641Y-73797428D01*
X182587908Y-73796973D01*
X182736292Y-73796557D01*
X182900637Y-73796173D01*
X183081784Y-73795812D01*
X183280574Y-73795468D01*
X183497851Y-73795131D01*
X183734455Y-73794794D01*
X183991229Y-73794448D01*
X184269016Y-73794086D01*
X184313068Y-73794030D01*
X186895933Y-73790699D01*
X187211922Y-73947751D01*
G37*
G36*
X187208931Y-70434019D02*
G01*
X187285936Y-70472700D01*
X187356250Y-70508329D01*
X187417558Y-70539709D01*
X187467544Y-70565642D01*
X187503894Y-70584931D01*
X187524291Y-70596378D01*
X187527910Y-70599003D01*
X187518458Y-70605063D01*
X187491674Y-70619675D01*
X187449915Y-70641617D01*
X187395540Y-70669669D01*
X187330906Y-70702610D01*
X187258370Y-70739219D01*
X187220241Y-70758335D01*
X186912571Y-70912245D01*
X184333653Y-70912245D01*
X184029429Y-70912214D01*
X183746663Y-70912118D01*
X183484830Y-70911954D01*
X183243406Y-70911721D01*
X183021869Y-70911415D01*
X182819693Y-70911035D01*
X182636354Y-70910578D01*
X182471329Y-70910041D01*
X182324093Y-70909422D01*
X182194123Y-70908718D01*
X182080894Y-70907927D01*
X181983882Y-70907046D01*
X181902563Y-70906074D01*
X181836414Y-70905007D01*
X181784910Y-70903843D01*
X181747527Y-70902579D01*
X181723741Y-70901213D01*
X181713296Y-70899830D01*
X181658485Y-70874380D01*
X181604162Y-70833442D01*
X181556955Y-70782635D01*
X181533453Y-70747382D01*
X181515725Y-70713320D01*
X181505470Y-70683934D01*
X181500729Y-70650654D01*
X181499546Y-70604910D01*
X181499548Y-70599004D01*
X181501768Y-70542236D01*
X181508809Y-70501388D01*
X181519714Y-70474100D01*
X181556516Y-70420666D01*
X181606035Y-70368289D01*
X181660261Y-70324907D01*
X181685799Y-70309509D01*
X181741195Y-70280268D01*
X186889951Y-70274456D01*
X187208931Y-70434019D01*
G37*
G36*
X186262769Y-79534617D02*
G01*
X186263955Y-80183365D01*
X186584449Y-80501817D01*
X186901577Y-81133945D01*
X186593833Y-80979997D01*
X186517751Y-80942102D01*
X186447835Y-80907593D01*
X186386542Y-80877658D01*
X186336328Y-80853485D01*
X186299648Y-80836260D01*
X186278959Y-80827172D01*
X186275426Y-80826049D01*
X186272766Y-80836883D01*
X186270306Y-80868761D01*
X186268070Y-80920744D01*
X186266084Y-80991894D01*
X186264373Y-81081274D01*
X186262960Y-81187947D01*
X186261871Y-81310973D01*
X186261612Y-81350865D01*
X186260861Y-81471900D01*
X186260126Y-81572949D01*
X186259314Y-81656010D01*
X186258328Y-81723077D01*
X186257076Y-81776148D01*
X186255463Y-81817218D01*
X186253393Y-81848284D01*
X186250773Y-81871342D01*
X186247508Y-81888388D01*
X186243503Y-81901418D01*
X186238664Y-81912428D01*
X186234657Y-81920139D01*
X186188107Y-81986278D01*
X186130219Y-82035928D01*
X186064129Y-82069144D01*
X185992971Y-82085981D01*
X185919881Y-82086495D01*
X185847993Y-82070741D01*
X185780444Y-82038775D01*
X185720368Y-81990652D01*
X185670901Y-81926428D01*
X185661683Y-81910010D01*
X185631978Y-81853699D01*
X185628986Y-81012894D01*
X185625994Y-80172090D01*
X185306059Y-79851841D01*
X184986123Y-79531592D01*
X184990992Y-79438833D01*
X184999438Y-79365302D01*
X185017595Y-79309921D01*
X185047822Y-79270351D01*
X185092475Y-79244257D01*
X185153914Y-79229300D01*
X185207501Y-79224242D01*
X185302250Y-79219040D01*
X185463761Y-79382013D01*
X185512079Y-79430309D01*
X185555092Y-79472425D01*
X185590466Y-79506148D01*
X185615866Y-79529264D01*
X185628958Y-79539559D01*
X185630151Y-79539802D01*
X185636079Y-79529054D01*
X185650597Y-79501015D01*
X185672496Y-79458073D01*
X185700565Y-79402613D01*
X185733595Y-79337022D01*
X185770376Y-79263686D01*
X185791499Y-79221453D01*
X185947967Y-78908289D01*
X186262769Y-79534617D01*
G37*
G36*
X183880835Y-72360298D02*
G01*
X184360754Y-72841151D01*
X184515551Y-73151644D01*
X184553194Y-73227489D01*
X184587182Y-73296631D01*
X184616392Y-73356731D01*
X184639701Y-73405453D01*
X184655985Y-73440456D01*
X184664120Y-73459404D01*
X184664740Y-73462137D01*
X184653891Y-73457413D01*
X184625783Y-73444024D01*
X184582815Y-73423144D01*
X184527385Y-73395948D01*
X184461890Y-73363610D01*
X184388729Y-73327304D01*
X184348713Y-73307377D01*
X184038295Y-73152617D01*
X183562938Y-72678195D01*
X183087582Y-72203772D01*
X183087582Y-72099992D01*
X183088289Y-72048668D01*
X183091101Y-72013415D01*
X183097057Y-71988345D01*
X183107193Y-71967572D01*
X183112311Y-71959647D01*
X183148760Y-71920677D01*
X183197587Y-71895097D01*
X183261354Y-71881886D01*
X183313664Y-71879446D01*
X183400916Y-71879446D01*
X183880835Y-72360298D01*
G37*
G36*
X183408219Y-79548355D02*
G01*
X184042026Y-80183081D01*
X184196781Y-80493498D01*
X184234676Y-80569681D01*
X184269210Y-80639436D01*
X184299208Y-80700366D01*
X184323498Y-80750073D01*
X184340903Y-80786157D01*
X184350250Y-80806223D01*
X184351537Y-80809525D01*
X184342106Y-80806193D01*
X184315372Y-80794115D01*
X184273674Y-80774412D01*
X184219350Y-80748210D01*
X184154737Y-80716630D01*
X184082175Y-80680797D01*
X184041043Y-80660341D01*
X183730550Y-80505547D01*
X183090329Y-79866244D01*
X182450109Y-79226942D01*
X182450150Y-79127988D01*
X182454417Y-79054098D01*
X182468572Y-78998251D01*
X182494749Y-78958367D01*
X182535083Y-78932365D01*
X182591710Y-78918162D01*
X182666762Y-78913678D01*
X182669962Y-78913671D01*
X182774412Y-78913630D01*
X183408219Y-79548355D01*
G37*
G36*
X183079338Y-63736998D02*
G01*
X183156009Y-63775324D01*
X183225970Y-63810626D01*
X183286889Y-63841702D01*
X183336437Y-63867350D01*
X183372284Y-63886369D01*
X183392099Y-63897556D01*
X183395327Y-63899981D01*
X183385869Y-63906104D01*
X183359052Y-63920777D01*
X183317214Y-63942789D01*
X183262693Y-63970929D01*
X183197827Y-64003987D01*
X183124952Y-64040752D01*
X183082036Y-64062249D01*
X182768744Y-64218779D01*
X182270703Y-64218779D01*
X182143874Y-64218731D01*
X182036980Y-64218413D01*
X181947975Y-64217568D01*
X181874812Y-64215937D01*
X181815446Y-64213263D01*
X181767830Y-64209288D01*
X181729917Y-64203752D01*
X181699662Y-64196399D01*
X181675017Y-64186969D01*
X181653936Y-64175206D01*
X181634373Y-64160850D01*
X181614281Y-64143644D01*
X181604329Y-64134728D01*
X181551570Y-64078623D01*
X181517653Y-64020096D01*
X181499673Y-63953507D01*
X181496432Y-63925121D01*
X181497997Y-63855348D01*
X181515967Y-63792843D01*
X181552192Y-63732831D01*
X181586445Y-63692855D01*
X181608484Y-63669283D01*
X181627600Y-63649489D01*
X181645851Y-63633130D01*
X181665295Y-63619866D01*
X181687991Y-63609354D01*
X181715997Y-63601254D01*
X181751371Y-63595223D01*
X181796173Y-63590919D01*
X181852461Y-63588002D01*
X181922292Y-63586130D01*
X182007726Y-63584961D01*
X182110820Y-63584153D01*
X182233634Y-63583366D01*
X182246777Y-63583277D01*
X182763350Y-63579752D01*
X183079338Y-63736998D01*
G37*
G36*
X182285245Y-72356950D02*
G01*
X182763350Y-72835941D01*
X182920008Y-73149039D01*
X182957940Y-73225188D01*
X182992216Y-73294649D01*
X183021713Y-73355097D01*
X183045311Y-73404204D01*
X183061886Y-73439647D01*
X183070316Y-73459097D01*
X183071057Y-73462137D01*
X183060208Y-73457413D01*
X183032101Y-73444024D01*
X182989133Y-73423144D01*
X182933702Y-73395948D01*
X182868208Y-73363610D01*
X182795046Y-73327304D01*
X182755031Y-73307377D01*
X182444613Y-73152617D01*
X181969256Y-72678195D01*
X181493899Y-72203772D01*
X181493899Y-72103684D01*
X181494673Y-72053160D01*
X181497726Y-72018523D01*
X181504157Y-71993709D01*
X181515066Y-71972657D01*
X181518629Y-71967261D01*
X181546724Y-71930895D01*
X181575832Y-71906617D01*
X181611509Y-71891887D01*
X181659311Y-71884165D01*
X181706254Y-71881450D01*
X181807140Y-71877958D01*
X182285245Y-72356950D01*
G37*
G36*
X182131372Y-59750689D02*
G01*
X182130247Y-60410286D01*
X182129912Y-60529624D01*
X182129342Y-60643105D01*
X182128561Y-60748702D01*
X182127598Y-60844386D01*
X182126479Y-60928128D01*
X182125232Y-60997902D01*
X182123883Y-61051679D01*
X182122458Y-61087430D01*
X182121059Y-61102856D01*
X182092798Y-61176601D01*
X182049161Y-61237661D01*
X181993335Y-61285115D01*
X181928509Y-61318047D01*
X181857874Y-61335540D01*
X181784616Y-61336675D01*
X181711925Y-61320535D01*
X181642991Y-61286202D01*
X181600573Y-61252639D01*
X181567928Y-61218622D01*
X181538725Y-61182290D01*
X181523084Y-61158081D01*
X181518242Y-61148650D01*
X181514100Y-61138682D01*
X181510596Y-61126459D01*
X181507666Y-61110261D01*
X181505247Y-61088373D01*
X181503275Y-61059075D01*
X181501688Y-61020650D01*
X181500422Y-60971379D01*
X181499414Y-60909546D01*
X181498601Y-60833431D01*
X181497920Y-60741317D01*
X181497307Y-60631486D01*
X181496699Y-60502220D01*
X181496389Y-60432410D01*
X181493384Y-59750973D01*
X181812636Y-59432521D01*
X182131372Y-59750689D01*
G37*
G36*
X139092006Y-74475460D02*
G01*
X139089925Y-74477767D01*
X139083944Y-74483689D01*
X139074459Y-74492855D01*
X139061866Y-74504894D01*
X139046560Y-74519435D01*
X139028935Y-74536106D01*
X139009389Y-74554536D01*
X138988315Y-74574354D01*
X138966110Y-74595188D01*
X138943168Y-74616667D01*
X138919886Y-74638421D01*
X138896658Y-74660077D01*
X138873879Y-74681264D01*
X138851947Y-74701611D01*
X138831254Y-74720747D01*
X138812198Y-74738300D01*
X138808422Y-74741768D01*
X138765992Y-74780452D01*
X138722436Y-74819632D01*
X138676975Y-74859996D01*
X138628832Y-74902234D01*
X138577227Y-74947035D01*
X138549960Y-74970545D01*
X138525323Y-74991323D01*
X138496792Y-75014664D01*
X138465319Y-75039836D01*
X138431855Y-75066105D01*
X138397351Y-75092739D01*
X138362757Y-75119005D01*
X138329025Y-75144170D01*
X138297106Y-75167500D01*
X138267952Y-75188263D01*
X138262822Y-75191844D01*
X138238093Y-75208760D01*
X138210310Y-75227271D01*
X138180324Y-75246843D01*
X138148988Y-75266944D01*
X138117152Y-75287043D01*
X138085670Y-75306605D01*
X138055393Y-75325099D01*
X138027172Y-75341992D01*
X138001860Y-75356751D01*
X137980309Y-75368844D01*
X137975684Y-75371348D01*
X137850308Y-75435516D01*
X137721111Y-75495586D01*
X137588659Y-75551349D01*
X137453515Y-75602596D01*
X137316242Y-75649117D01*
X137177405Y-75690703D01*
X137037567Y-75727144D01*
X136982420Y-75740021D01*
X136851598Y-75767240D01*
X136722688Y-75789313D01*
X136594933Y-75806311D01*
X136467574Y-75818304D01*
X136339854Y-75825362D01*
X136211014Y-75827555D01*
X136080298Y-75824954D01*
X136071197Y-75824600D01*
X136026743Y-75822356D01*
X135977104Y-75819008D01*
X135922836Y-75814615D01*
X135864497Y-75809239D01*
X135802643Y-75802938D01*
X135737832Y-75795774D01*
X135670621Y-75787806D01*
X135601567Y-75779095D01*
X135531227Y-75769700D01*
X135460159Y-75759682D01*
X135433926Y-75755849D01*
X135398860Y-75750645D01*
X135363003Y-75745263D01*
X135326827Y-75739778D01*
X135290802Y-75734266D01*
X135255398Y-75728801D01*
X135221087Y-75723457D01*
X135188340Y-75718309D01*
X135157627Y-75713433D01*
X135129419Y-75708903D01*
X135104186Y-75704793D01*
X135082401Y-75701179D01*
X135064533Y-75698135D01*
X135051053Y-75695735D01*
X135042433Y-75694056D01*
X135039148Y-75693176D01*
X135040558Y-75690791D01*
X135045852Y-75685442D01*
X135054312Y-75677789D01*
X135065217Y-75668492D01*
X135072843Y-75662231D01*
X135080873Y-75655719D01*
X135093113Y-75645781D01*
X135109224Y-75632692D01*
X135128873Y-75616725D01*
X135151721Y-75598153D01*
X135177432Y-75577250D01*
X135205671Y-75554289D01*
X135236101Y-75529544D01*
X135268386Y-75503288D01*
X135302189Y-75475796D01*
X135337175Y-75447340D01*
X135373006Y-75418193D01*
X135409347Y-75388631D01*
X135445861Y-75358925D01*
X135482212Y-75329350D01*
X135518063Y-75300179D01*
X135553079Y-75271685D01*
X135586923Y-75244142D01*
X135609725Y-75225584D01*
X135631573Y-75207816D01*
X135652093Y-75191159D01*
X135670824Y-75175984D01*
X135687309Y-75162659D01*
X135701087Y-75151557D01*
X135711701Y-75143047D01*
X135718692Y-75137500D01*
X135721599Y-75135286D01*
X135725920Y-75134672D01*
X135734502Y-75134793D01*
X135745798Y-75135605D01*
X135750899Y-75136133D01*
X135794330Y-75140735D01*
X135835673Y-75144475D01*
X135876371Y-75147440D01*
X135917867Y-75149714D01*
X135961604Y-75151382D01*
X136009023Y-75152531D01*
X136034572Y-75152937D01*
X136094856Y-75153324D01*
X136152790Y-75152765D01*
X136209579Y-75151197D01*
X136266434Y-75148557D01*
X136324563Y-75144780D01*
X136385174Y-75139803D01*
X136449476Y-75133562D01*
X136494579Y-75128715D01*
X136570259Y-75119691D01*
X136641173Y-75109908D01*
X136708388Y-75099151D01*
X136772971Y-75087207D01*
X136835990Y-75073862D01*
X136898512Y-75058903D01*
X136961606Y-75042116D01*
X137026338Y-75023288D01*
X137035160Y-75020608D01*
X137068855Y-75010328D01*
X137360930Y-75010297D01*
X137414467Y-75010267D01*
X137462299Y-75010188D01*
X137504578Y-75010059D01*
X137541458Y-75009877D01*
X137573093Y-75009640D01*
X137599637Y-75009348D01*
X137621243Y-75008999D01*
X137638064Y-75008591D01*
X137650255Y-75008122D01*
X137657970Y-75007590D01*
X137661253Y-75007041D01*
X137666160Y-75005175D01*
X137675739Y-75001580D01*
X137689165Y-74996561D01*
X137705616Y-74990427D01*
X137724270Y-74983485D01*
X137742750Y-74976618D01*
X137761091Y-74969806D01*
X137783773Y-74961376D01*
X137810510Y-74951436D01*
X137841013Y-74940094D01*
X137874995Y-74927455D01*
X137912168Y-74913628D01*
X137952242Y-74898720D01*
X137994932Y-74882837D01*
X138039948Y-74866088D01*
X138087003Y-74848579D01*
X138135809Y-74830417D01*
X138186078Y-74811710D01*
X138237522Y-74792564D01*
X138289852Y-74773088D01*
X138342782Y-74753387D01*
X138396023Y-74733570D01*
X138449287Y-74713744D01*
X138502286Y-74694015D01*
X138554732Y-74674491D01*
X138606338Y-74655279D01*
X138656815Y-74636486D01*
X138705875Y-74618220D01*
X138753232Y-74600588D01*
X138798595Y-74583696D01*
X138841678Y-74567652D01*
X138882193Y-74552564D01*
X138919852Y-74538538D01*
X138954366Y-74525681D01*
X138985448Y-74514101D01*
X139012811Y-74503905D01*
X139036165Y-74495201D01*
X139055223Y-74488094D01*
X139069697Y-74482693D01*
X139079299Y-74479105D01*
X139083742Y-74477437D01*
X139083949Y-74477357D01*
X139089623Y-74475512D01*
X139092006Y-74475453D01*
X139092006Y-74475460D01*
G37*
G36*
X142000155Y-71864099D02*
G01*
X141999584Y-71867153D01*
X141997165Y-71874946D01*
X141993165Y-71886755D01*
X141987847Y-71901852D01*
X141981479Y-71919514D01*
X141974326Y-71939014D01*
X141966653Y-71959627D01*
X141958726Y-71980627D01*
X141950811Y-72001289D01*
X141943173Y-72020889D01*
X141937619Y-72034872D01*
X141899292Y-72124251D01*
X141855729Y-72214527D01*
X141807312Y-72304943D01*
X141761289Y-72383539D01*
X141743240Y-72412565D01*
X141725409Y-72439918D01*
X141706798Y-72467050D01*
X141686409Y-72495409D01*
X141663242Y-72526446D01*
X141659404Y-72531503D01*
X141643575Y-72552211D01*
X141629538Y-72570263D01*
X141616576Y-72586488D01*
X141603972Y-72601714D01*
X141591009Y-72616770D01*
X141576971Y-72632485D01*
X141561140Y-72649689D01*
X141542800Y-72669210D01*
X141521233Y-72691876D01*
X141515529Y-72697843D01*
X141496311Y-72717897D01*
X141479556Y-72735253D01*
X141464616Y-72750513D01*
X141450845Y-72764276D01*
X141437594Y-72777144D01*
X141424216Y-72789718D01*
X141410065Y-72802598D01*
X141394493Y-72816387D01*
X141376853Y-72831684D01*
X141356496Y-72849092D01*
X141332777Y-72869210D01*
X141312478Y-72886366D01*
X141288497Y-72906599D01*
X141267446Y-72924285D01*
X141248703Y-72939900D01*
X141231645Y-72953921D01*
X141215649Y-72966823D01*
X141200092Y-72979082D01*
X141184353Y-72991174D01*
X141167807Y-73003574D01*
X141149832Y-73016760D01*
X141129806Y-73031206D01*
X141107105Y-73047388D01*
X141081107Y-73065783D01*
X141051190Y-73086866D01*
X141037513Y-73096491D01*
X140994018Y-73126934D01*
X140952138Y-73155897D01*
X140910893Y-73184033D01*
X140869306Y-73211997D01*
X140826399Y-73240442D01*
X140781193Y-73270023D01*
X140732709Y-73301394D01*
X140690311Y-73328598D01*
X140658775Y-73348748D01*
X140627695Y-73368566D01*
X140597572Y-73387736D01*
X140568906Y-73405941D01*
X140542196Y-73422864D01*
X140517944Y-73438190D01*
X140496651Y-73451601D01*
X140478815Y-73462780D01*
X140464938Y-73471411D01*
X140455912Y-73476941D01*
X140444477Y-73483854D01*
X140428740Y-73493382D01*
X140409405Y-73505099D01*
X140387178Y-73518575D01*
X140362764Y-73533385D01*
X140336868Y-73549100D01*
X140310195Y-73565292D01*
X140283450Y-73581534D01*
X140283071Y-73581764D01*
X140256736Y-73597720D01*
X140226270Y-73616105D01*
X140192590Y-73636373D01*
X140156610Y-73657974D01*
X140119247Y-73680360D01*
X140081415Y-73702982D01*
X140044031Y-73725291D01*
X140008011Y-73746739D01*
X139978353Y-73764354D01*
X139856524Y-73836769D01*
X139739785Y-73906459D01*
X139628065Y-73973468D01*
X139521290Y-74037841D01*
X139419386Y-74099621D01*
X139322281Y-74158854D01*
X139229902Y-74215582D01*
X139181371Y-74245552D01*
X139155649Y-74261444D01*
X139134193Y-74274609D01*
X139116300Y-74285429D01*
X139101265Y-74294285D01*
X139088387Y-74301558D01*
X139076962Y-74307630D01*
X139066287Y-74312881D01*
X139055660Y-74317693D01*
X139044377Y-74322446D01*
X139031736Y-74327523D01*
X139026082Y-74329753D01*
X138903585Y-74377926D01*
X138784935Y-74424588D01*
X138670297Y-74469673D01*
X138559837Y-74513118D01*
X138453721Y-74554856D01*
X138352113Y-74594823D01*
X138255180Y-74632953D01*
X138163086Y-74669182D01*
X138075998Y-74703444D01*
X137994081Y-74735674D01*
X137939059Y-74757323D01*
X137607971Y-74887602D01*
X137083505Y-74885917D01*
X137026997Y-74885728D01*
X136971183Y-74885526D01*
X136916427Y-74885313D01*
X136863091Y-74885090D01*
X136811537Y-74884861D01*
X136762127Y-74884627D01*
X136715224Y-74884390D01*
X136671190Y-74884152D01*
X136630387Y-74883914D01*
X136593179Y-74883680D01*
X136559927Y-74883450D01*
X136530993Y-74883228D01*
X136506741Y-74883014D01*
X136487533Y-74882811D01*
X136473730Y-74882621D01*
X136471139Y-74882575D01*
X136394281Y-74882300D01*
X136318758Y-74884342D01*
X136245706Y-74888643D01*
X136176257Y-74895142D01*
X136133766Y-74900491D01*
X136051182Y-74914845D01*
X135968108Y-74934877D01*
X135884497Y-74960606D01*
X135800303Y-74992049D01*
X135715480Y-75029225D01*
X135629983Y-75072153D01*
X135543767Y-75120851D01*
X135468123Y-75167934D01*
X135449123Y-75180343D01*
X135430806Y-75192491D01*
X135412611Y-75204775D01*
X135393978Y-75217594D01*
X135374347Y-75231344D01*
X135353155Y-75246424D01*
X135329844Y-75263231D01*
X135303852Y-75282162D01*
X135274619Y-75303615D01*
X135241584Y-75327989D01*
X135221502Y-75342849D01*
X135179282Y-75373955D01*
X135140977Y-75401826D01*
X135105949Y-75426910D01*
X135073559Y-75449661D01*
X135043167Y-75470527D01*
X135014135Y-75489960D01*
X134997359Y-75500953D01*
X134986449Y-75507975D01*
X134972328Y-75516957D01*
X134955715Y-75527451D01*
X134937334Y-75539007D01*
X134917903Y-75551176D01*
X134898145Y-75563509D01*
X134878780Y-75575557D01*
X134860530Y-75586871D01*
X134844116Y-75597001D01*
X134830258Y-75605500D01*
X134819678Y-75611916D01*
X134813096Y-75615802D01*
X134811931Y-75616449D01*
X134807615Y-75618535D01*
X134806598Y-75617590D01*
X134808460Y-75612588D01*
X134809431Y-75610340D01*
X134825861Y-75573562D01*
X134844043Y-75534830D01*
X134863239Y-75495619D01*
X134882710Y-75457408D01*
X134901718Y-75421672D01*
X134919523Y-75389891D01*
X134920483Y-75388234D01*
X134939796Y-75356102D01*
X134960082Y-75324644D01*
X134981566Y-75293652D01*
X135004469Y-75262920D01*
X135029015Y-75232242D01*
X135055427Y-75201409D01*
X135083928Y-75170215D01*
X135114742Y-75138453D01*
X135148092Y-75105916D01*
X135184200Y-75072397D01*
X135223290Y-75037689D01*
X135265585Y-75001585D01*
X135311309Y-74963879D01*
X135360684Y-74924362D01*
X135413933Y-74882829D01*
X135471280Y-74839071D01*
X135532948Y-74792883D01*
X135599160Y-74744057D01*
X135670139Y-74692386D01*
X135672719Y-74690518D01*
X135722183Y-74654742D01*
X135769084Y-74620865D01*
X135813713Y-74588685D01*
X135856359Y-74558003D01*
X135897314Y-74528620D01*
X135936868Y-74500335D01*
X135975310Y-74472949D01*
X136012932Y-74446260D01*
X136050024Y-74420070D01*
X136086875Y-74394179D01*
X136123777Y-74368385D01*
X136161020Y-74342491D01*
X136198893Y-74316294D01*
X136237688Y-74289596D01*
X136277695Y-74262197D01*
X136319204Y-74233895D01*
X136362505Y-74204493D01*
X136407889Y-74173789D01*
X136455646Y-74141583D01*
X136506067Y-74107676D01*
X136559441Y-74071868D01*
X136616059Y-74033959D01*
X136676212Y-73993747D01*
X136740189Y-73951035D01*
X136808282Y-73905621D01*
X136880780Y-73857306D01*
X136931146Y-73823757D01*
X137006001Y-73773927D01*
X137076250Y-73727220D01*
X137142140Y-73683478D01*
X137203919Y-73642543D01*
X137261836Y-73604256D01*
X137316140Y-73568461D01*
X137367078Y-73534999D01*
X137414899Y-73503712D01*
X137459851Y-73474442D01*
X137502183Y-73447031D01*
X137542142Y-73421321D01*
X137579977Y-73397155D01*
X137615937Y-73374373D01*
X137650270Y-73352818D01*
X137683223Y-73332333D01*
X137715046Y-73312759D01*
X137745987Y-73293938D01*
X137776293Y-73275712D01*
X137806214Y-73257923D01*
X137835998Y-73240413D01*
X137865892Y-73223025D01*
X137896146Y-73205600D01*
X137927007Y-73187980D01*
X137958104Y-73170357D01*
X138069620Y-73108848D01*
X138183461Y-73049019D01*
X138299900Y-72990760D01*
X138419212Y-72933962D01*
X138541672Y-72878514D01*
X138667553Y-72824307D01*
X138797130Y-72771230D01*
X138930678Y-72719173D01*
X139068471Y-72668027D01*
X139210782Y-72617681D01*
X139357888Y-72568026D01*
X139510061Y-72518951D01*
X139667576Y-72470346D01*
X139808387Y-72428586D01*
X139838497Y-72419813D01*
X139868940Y-72410938D01*
X139898842Y-72402216D01*
X139927332Y-72393903D01*
X139953534Y-72386253D01*
X139976577Y-72379521D01*
X139995588Y-72373962D01*
X140007625Y-72370436D01*
X140028015Y-72364537D01*
X140053506Y-72357290D01*
X140083538Y-72348849D01*
X140117548Y-72339368D01*
X140154973Y-72329000D01*
X140195251Y-72317899D01*
X140237820Y-72306216D01*
X140282117Y-72294107D01*
X140327581Y-72281724D01*
X140373649Y-72269220D01*
X140419758Y-72256750D01*
X140465347Y-72244466D01*
X140509853Y-72232521D01*
X140552714Y-72221069D01*
X140593367Y-72210263D01*
X140631250Y-72200257D01*
X140643431Y-72197057D01*
X140746615Y-72170091D01*
X140847156Y-72144045D01*
X140945953Y-72118694D01*
X141043903Y-72093816D01*
X141141905Y-72069184D01*
X141240858Y-72044576D01*
X141341659Y-72019767D01*
X141445207Y-71994533D01*
X141552399Y-71968649D01*
X141664135Y-71941892D01*
X141702619Y-71932723D01*
X141751577Y-71921078D01*
X141795124Y-71910736D01*
X141833547Y-71901631D01*
X141867134Y-71893696D01*
X141896172Y-71886865D01*
X141920948Y-71881071D01*
X141941749Y-71876249D01*
X141958862Y-71872333D01*
X141972575Y-71869255D01*
X141983174Y-71866950D01*
X141990946Y-71865352D01*
X141996180Y-71864394D01*
X141999162Y-71864010D01*
X142000155Y-71864099D01*
G37*
G36*
X136172229Y-67824089D02*
G01*
X136249531Y-67826508D01*
X136329831Y-67830235D01*
X136413561Y-67835279D01*
X136501155Y-67841645D01*
X136593046Y-67849342D01*
X136689667Y-67858377D01*
X136791451Y-67868757D01*
X136816877Y-67871469D01*
X136838712Y-67873803D01*
X136860978Y-67876160D01*
X136882204Y-67878385D01*
X136900925Y-67880325D01*
X136915672Y-67881826D01*
X136918693Y-67882128D01*
X136932093Y-67883660D01*
X136943057Y-67885302D01*
X136950445Y-67886855D01*
X136953121Y-67888110D01*
X136951761Y-67890831D01*
X136947816Y-67898331D01*
X136941489Y-67910231D01*
X136932984Y-67926155D01*
X136922503Y-67945727D01*
X136910250Y-67968570D01*
X136896428Y-67994308D01*
X136881240Y-68022563D01*
X136864888Y-68052959D01*
X136847578Y-68085119D01*
X136829510Y-68118667D01*
X136810889Y-68153227D01*
X136791918Y-68188420D01*
X136772800Y-68223872D01*
X136753737Y-68259204D01*
X136734934Y-68294041D01*
X136716592Y-68328006D01*
X136698917Y-68360722D01*
X136682109Y-68391813D01*
X136666373Y-68420901D01*
X136651912Y-68447610D01*
X136638929Y-68471565D01*
X136627627Y-68492387D01*
X136618209Y-68509700D01*
X136610878Y-68523128D01*
X136605838Y-68532293D01*
X136603291Y-68536820D01*
X136603039Y-68537224D01*
X136600086Y-68537205D01*
X136592369Y-68536637D01*
X136580952Y-68535612D01*
X136566895Y-68534221D01*
X136561707Y-68533681D01*
X136467826Y-68524476D01*
X136378698Y-68517192D01*
X136293542Y-68511829D01*
X136211577Y-68508387D01*
X136132019Y-68506866D01*
X136054087Y-68507267D01*
X135976999Y-68509589D01*
X135899972Y-68513832D01*
X135822225Y-68519998D01*
X135742975Y-68528085D01*
X135694694Y-68533821D01*
X135556293Y-68554000D01*
X135419306Y-68579822D01*
X135283888Y-68611224D01*
X135150187Y-68648142D01*
X135018358Y-68690514D01*
X134888550Y-68738277D01*
X134760916Y-68791369D01*
X134635608Y-68849727D01*
X134512777Y-68913288D01*
X134392574Y-68981989D01*
X134275152Y-69055767D01*
X134160662Y-69134560D01*
X134059417Y-69210361D01*
X133962964Y-69288612D01*
X133868255Y-69371674D01*
X133776031Y-69458809D01*
X133687032Y-69549278D01*
X133601998Y-69642342D01*
X133521670Y-69737264D01*
X133483925Y-69784647D01*
X133400887Y-69895742D01*
X133323039Y-70009391D01*
X133250388Y-70125431D01*
X133182935Y-70243695D01*
X133120686Y-70364021D01*
X133063644Y-70486244D01*
X133011814Y-70610199D01*
X132965200Y-70735723D01*
X132923805Y-70862651D01*
X132887633Y-70990819D01*
X132856689Y-71120062D01*
X132830977Y-71250216D01*
X132810501Y-71381117D01*
X132795265Y-71512601D01*
X132785272Y-71644503D01*
X132780528Y-71776658D01*
X132781035Y-71908904D01*
X132786799Y-72041075D01*
X132797822Y-72173007D01*
X132814110Y-72304536D01*
X132835666Y-72435497D01*
X132862494Y-72565727D01*
X132894598Y-72695060D01*
X132931983Y-72823334D01*
X132974652Y-72950382D01*
X133022609Y-73076042D01*
X133075859Y-73200148D01*
X133134406Y-73322536D01*
X133198253Y-73443043D01*
X133267405Y-73561504D01*
X133341865Y-73677754D01*
X133386358Y-73742501D01*
X133434256Y-73808927D01*
X133482524Y-73872645D01*
X133531784Y-73934363D01*
X133582659Y-73994786D01*
X133635771Y-74054622D01*
X133691742Y-74114576D01*
X133751196Y-74175355D01*
X133814755Y-74237665D01*
X133863456Y-74283919D01*
X133879459Y-74298626D01*
X133899179Y-74316248D01*
X133921755Y-74336047D01*
X133946326Y-74357279D01*
X133972031Y-74379206D01*
X133998007Y-74401086D01*
X134023395Y-74422178D01*
X134041305Y-74436852D01*
X134109843Y-74491366D01*
X134176180Y-74541505D01*
X134241209Y-74587868D01*
X134305823Y-74631057D01*
X134370914Y-74671672D01*
X134437376Y-74710314D01*
X134491937Y-74740107D01*
X134505052Y-74747162D01*
X134516609Y-74753534D01*
X134525441Y-74758571D01*
X134530384Y-74761618D01*
X134530653Y-74761814D01*
X134531360Y-74762640D01*
X134531904Y-74764141D01*
X134532251Y-74766618D01*
X134532372Y-74770371D01*
X134532233Y-74775701D01*
X134531803Y-74782910D01*
X134531051Y-74792299D01*
X134529944Y-74804168D01*
X134528452Y-74818818D01*
X134526542Y-74836551D01*
X134524182Y-74857667D01*
X134521342Y-74882468D01*
X134517989Y-74911254D01*
X134514092Y-74944326D01*
X134509618Y-74981985D01*
X134504537Y-75024533D01*
X134498816Y-75072270D01*
X134492425Y-75125497D01*
X134491836Y-75130396D01*
X134486360Y-75175968D01*
X134481081Y-75219909D01*
X134476041Y-75261870D01*
X134471282Y-75301504D01*
X134466846Y-75338461D01*
X134462774Y-75372393D01*
X134459109Y-75402951D01*
X134455892Y-75429785D01*
X134453164Y-75452549D01*
X134450969Y-75470891D01*
X134449347Y-75484465D01*
X134448341Y-75492921D01*
X134447992Y-75495910D01*
X134447992Y-75495911D01*
X134447362Y-75496407D01*
X134445165Y-75495898D01*
X134440922Y-75494144D01*
X134434156Y-75490906D01*
X134424388Y-75485943D01*
X134411140Y-75479014D01*
X134393933Y-75469880D01*
X134372289Y-75458300D01*
X134360088Y-75451750D01*
X134300329Y-75419475D01*
X134245258Y-75389351D01*
X134194266Y-75361026D01*
X134146743Y-75334146D01*
X134102079Y-75308360D01*
X134059666Y-75283313D01*
X134018893Y-75258653D01*
X133979151Y-75234026D01*
X133939831Y-75209081D01*
X133928677Y-75201902D01*
X133810356Y-75122274D01*
X133693764Y-75037335D01*
X133579376Y-74947501D01*
X133467668Y-74853185D01*
X133359115Y-74754802D01*
X133254191Y-74652766D01*
X133153374Y-74547491D01*
X133067555Y-74451489D01*
X132970032Y-74334268D01*
X132877345Y-74213817D01*
X132789544Y-74090294D01*
X132706681Y-73963853D01*
X132628807Y-73834649D01*
X132555974Y-73702838D01*
X132488232Y-73568576D01*
X132425633Y-73432017D01*
X132368227Y-73293318D01*
X132316068Y-73152633D01*
X132269204Y-73010118D01*
X132227689Y-72865929D01*
X132191572Y-72720220D01*
X132160906Y-72573148D01*
X132135741Y-72424867D01*
X132116129Y-72275533D01*
X132102121Y-72125302D01*
X132093768Y-71974329D01*
X132091121Y-71822768D01*
X132094233Y-71670777D01*
X132102633Y-71525268D01*
X132117096Y-71373391D01*
X132137267Y-71222635D01*
X132163077Y-71073146D01*
X132194455Y-70925074D01*
X132231332Y-70778565D01*
X132273636Y-70633768D01*
X132321299Y-70490831D01*
X132374249Y-70349901D01*
X132432418Y-70211127D01*
X132495734Y-70074657D01*
X132564127Y-69940638D01*
X132637529Y-69809218D01*
X132715867Y-69680545D01*
X132799073Y-69554768D01*
X132887075Y-69432033D01*
X132979805Y-69312489D01*
X133077192Y-69196285D01*
X133179165Y-69083567D01*
X133285655Y-68974483D01*
X133334070Y-68927536D01*
X133446066Y-68824762D01*
X133561667Y-68726523D01*
X133680709Y-68632899D01*
X133803027Y-68543965D01*
X133928457Y-68459801D01*
X134056835Y-68380483D01*
X134187995Y-68306091D01*
X134321773Y-68236701D01*
X134458006Y-68172391D01*
X134596527Y-68113240D01*
X134737174Y-68059325D01*
X134879781Y-68010724D01*
X135024184Y-67967514D01*
X135170218Y-67929774D01*
X135317719Y-67897581D01*
X135466523Y-67871014D01*
X135609725Y-67850961D01*
X135678645Y-67843177D01*
X135747097Y-67836642D01*
X135815513Y-67831365D01*
X135884327Y-67827351D01*
X135953973Y-67824610D01*
X136024883Y-67823148D01*
X136097491Y-67822971D01*
X136172229Y-67824089D01*
G37*
G36*
X139886650Y-64198478D02*
G01*
X139889203Y-64206451D01*
X139893014Y-64219189D01*
X139897958Y-64236244D01*
X139903912Y-64257166D01*
X139910753Y-64281506D01*
X139918355Y-64308815D01*
X139926595Y-64338645D01*
X139935350Y-64370545D01*
X139944494Y-64404068D01*
X139953906Y-64438764D01*
X139963459Y-64474185D01*
X139973031Y-64509880D01*
X139982498Y-64545401D01*
X139991736Y-64580300D01*
X139994622Y-64591257D01*
X140015881Y-64673526D01*
X140036061Y-64754545D01*
X140055060Y-64833834D01*
X140072776Y-64910914D01*
X140089104Y-64985306D01*
X140103943Y-65056530D01*
X140117189Y-65124107D01*
X140128739Y-65187558D01*
X140138491Y-65246403D01*
X140145566Y-65294452D01*
X140148857Y-65318393D01*
X140152023Y-65341327D01*
X140154943Y-65362383D01*
X140157495Y-65380688D01*
X140159558Y-65395371D01*
X140161011Y-65405560D01*
X140161474Y-65408721D01*
X140162209Y-65415797D01*
X140163112Y-65427988D01*
X140164142Y-65444551D01*
X140165259Y-65464744D01*
X140166422Y-65487825D01*
X140167591Y-65513053D01*
X140168726Y-65539684D01*
X140169114Y-65549360D01*
X140173909Y-65670954D01*
X140164895Y-65794013D01*
X140155881Y-65917073D01*
X140130768Y-66059177D01*
X140125194Y-66090608D01*
X140120285Y-66117903D01*
X140115844Y-66141953D01*
X140111676Y-66163648D01*
X140107583Y-66183878D01*
X140103369Y-66203535D01*
X140098838Y-66223509D01*
X140093793Y-66244690D01*
X140088037Y-66267969D01*
X140081374Y-66294237D01*
X140073608Y-66324384D01*
X140064541Y-66359302D01*
X140064489Y-66359500D01*
X140055968Y-66392276D01*
X140048571Y-66420742D01*
X140042112Y-66445534D01*
X140036407Y-66467292D01*
X140031271Y-66486652D01*
X140026519Y-66504252D01*
X140021967Y-66520732D01*
X140017429Y-66536728D01*
X140012722Y-66552879D01*
X140007659Y-66569822D01*
X140002057Y-66588196D01*
X139995730Y-66608639D01*
X139988495Y-66631789D01*
X139980165Y-66658283D01*
X139970556Y-66688760D01*
X139959484Y-66723858D01*
X139953015Y-66744374D01*
X139925058Y-66831779D01*
X139895527Y-66921574D01*
X139864366Y-67013904D01*
X139831518Y-67108918D01*
X139796925Y-67206761D01*
X139760530Y-67307579D01*
X139722276Y-67411520D01*
X139682105Y-67518730D01*
X139639960Y-67629356D01*
X139595785Y-67743544D01*
X139549522Y-67861440D01*
X139501113Y-67983193D01*
X139450502Y-68108947D01*
X139397631Y-68238850D01*
X139342442Y-68373048D01*
X139284880Y-68511687D01*
X139224886Y-68654915D01*
X139162403Y-68802879D01*
X139097374Y-68955723D01*
X139029742Y-69113596D01*
X139011431Y-69156166D01*
X138998768Y-69185585D01*
X138985485Y-69216453D01*
X138972038Y-69247707D01*
X138958885Y-69278282D01*
X138946485Y-69307115D01*
X138935295Y-69333141D01*
X138925772Y-69355297D01*
X138922374Y-69363204D01*
X138913346Y-69383916D01*
X138904653Y-69403296D01*
X138896664Y-69420562D01*
X138889748Y-69434935D01*
X138884275Y-69445633D01*
X138880615Y-69451876D01*
X138880093Y-69452569D01*
X138876699Y-69456256D01*
X138869524Y-69463731D01*
X138858925Y-69474629D01*
X138845258Y-69488588D01*
X138828882Y-69505246D01*
X138810152Y-69524239D01*
X138789427Y-69545206D01*
X138767062Y-69567782D01*
X138743415Y-69591606D01*
X138727730Y-69607383D01*
X138692254Y-69643100D01*
X138653253Y-69682461D01*
X138611281Y-69724906D01*
X138566892Y-69769870D01*
X138520639Y-69816791D01*
X138473077Y-69865107D01*
X138424759Y-69914255D01*
X138376239Y-69963672D01*
X138328070Y-70012797D01*
X138280807Y-70061065D01*
X138235003Y-70107915D01*
X138225936Y-70117199D01*
X138155544Y-70189564D01*
X138085432Y-70262191D01*
X138015997Y-70334656D01*
X137947638Y-70406534D01*
X137880751Y-70477399D01*
X137815734Y-70546828D01*
X137752986Y-70614395D01*
X137692904Y-70679676D01*
X137635885Y-70742246D01*
X137582328Y-70801680D01*
X137532629Y-70857554D01*
X137530272Y-70860224D01*
X137468474Y-70930890D01*
X137405309Y-71004309D01*
X137341464Y-71079646D01*
X137277626Y-71156066D01*
X137214482Y-71232734D01*
X137152718Y-71308816D01*
X137093023Y-71383476D01*
X137036083Y-71455878D01*
X136982585Y-71525189D01*
X136974867Y-71535310D01*
X136875153Y-71667023D01*
X136776777Y-71798420D01*
X136679991Y-71929148D01*
X136585049Y-72058850D01*
X136492203Y-72187172D01*
X136401706Y-72313757D01*
X136313810Y-72438252D01*
X136228767Y-72560299D01*
X136146831Y-72679545D01*
X136068253Y-72795634D01*
X135993287Y-72908210D01*
X135928210Y-73007625D01*
X135855815Y-73120402D01*
X135785482Y-73232465D01*
X135716813Y-73344506D01*
X135649410Y-73457218D01*
X135582876Y-73571291D01*
X135516813Y-73687419D01*
X135450824Y-73806292D01*
X135384511Y-73928602D01*
X135317476Y-74055042D01*
X135249323Y-74186302D01*
X135236627Y-74211039D01*
X135220771Y-74242000D01*
X135205719Y-74271418D01*
X135191682Y-74298881D01*
X135178870Y-74323976D01*
X135167492Y-74346291D01*
X135157759Y-74365414D01*
X135149881Y-74380933D01*
X135144068Y-74392435D01*
X135140529Y-74399508D01*
X135139463Y-74401747D01*
X135138200Y-74404491D01*
X135134561Y-74412036D01*
X135128765Y-74423933D01*
X135121035Y-74439729D01*
X135111591Y-74458975D01*
X135100655Y-74481219D01*
X135088448Y-74506011D01*
X135075191Y-74532901D01*
X135061105Y-74561436D01*
X135059141Y-74565411D01*
X135032499Y-74619516D01*
X135003594Y-74678542D01*
X134972618Y-74742089D01*
X134939764Y-74809757D01*
X134905226Y-74881147D01*
X134869197Y-74955859D01*
X134831868Y-75033493D01*
X134793434Y-75113650D01*
X134754087Y-75195930D01*
X134714021Y-75279934D01*
X134700819Y-75307660D01*
X134686040Y-75338685D01*
X134671980Y-75368148D01*
X134658844Y-75395623D01*
X134646836Y-75420685D01*
X134636162Y-75442908D01*
X134627025Y-75461868D01*
X134619630Y-75477139D01*
X134614182Y-75488294D01*
X134610885Y-75494910D01*
X134609940Y-75496644D01*
X134609287Y-75495373D01*
X134609993Y-75490784D01*
X134610803Y-75486763D01*
X134612610Y-75477456D01*
X134615326Y-75463334D01*
X134618860Y-75444867D01*
X134623123Y-75422528D01*
X134628024Y-75396788D01*
X134633475Y-75368118D01*
X134639384Y-75336990D01*
X134645663Y-75303874D01*
X134651605Y-75272500D01*
X134661658Y-75219522D01*
X134672170Y-75164383D01*
X134683032Y-75107646D01*
X134694132Y-75049873D01*
X134705363Y-74991627D01*
X134716614Y-74933470D01*
X134727776Y-74875967D01*
X134738738Y-74819678D01*
X134749392Y-74765168D01*
X134759628Y-74712999D01*
X134769336Y-74663734D01*
X134778407Y-74617935D01*
X134786730Y-74576166D01*
X134794197Y-74538989D01*
X134800697Y-74506967D01*
X134801131Y-74504845D01*
X134807039Y-74475974D01*
X134813367Y-74445035D01*
X134819827Y-74413439D01*
X134826132Y-74382598D01*
X134831993Y-74353920D01*
X134837120Y-74328818D01*
X134839467Y-74317326D01*
X134872294Y-74160730D01*
X134907726Y-73999705D01*
X134945586Y-73834982D01*
X134985695Y-73667289D01*
X135027876Y-73497356D01*
X135071951Y-73325911D01*
X135117743Y-73153684D01*
X135164705Y-72982720D01*
X135171350Y-72959006D01*
X135179393Y-72930458D01*
X135188692Y-72897572D01*
X135199105Y-72860843D01*
X135210491Y-72820765D01*
X135222708Y-72777832D01*
X135235615Y-72732541D01*
X135249068Y-72685386D01*
X135262928Y-72636861D01*
X135277052Y-72587463D01*
X135291298Y-72537684D01*
X135305525Y-72488021D01*
X135319591Y-72438968D01*
X135333355Y-72391020D01*
X135346674Y-72344672D01*
X135359407Y-72300419D01*
X135371412Y-72258755D01*
X135382548Y-72220176D01*
X135392672Y-72185176D01*
X135401644Y-72154251D01*
X135409321Y-72127894D01*
X135415562Y-72106601D01*
X135416409Y-72103726D01*
X135421662Y-72085901D01*
X135428225Y-72063599D01*
X135435763Y-72037964D01*
X135443939Y-72010144D01*
X135452415Y-71981283D01*
X135460855Y-71952528D01*
X135467642Y-71929392D01*
X135476623Y-71898900D01*
X135486676Y-71864993D01*
X135497310Y-71829314D01*
X135508034Y-71793505D01*
X135518357Y-71759209D01*
X135527786Y-71728067D01*
X135532060Y-71714039D01*
X135540333Y-71686941D01*
X135548984Y-71658589D01*
X135557639Y-71630210D01*
X135565924Y-71603032D01*
X135573463Y-71578283D01*
X135579884Y-71557191D01*
X135582974Y-71547030D01*
X135593100Y-71514056D01*
X135604889Y-71476263D01*
X135618104Y-71434376D01*
X135632511Y-71389120D01*
X135647874Y-71341220D01*
X135663957Y-71291402D01*
X135680526Y-71240390D01*
X135697345Y-71188910D01*
X135714179Y-71137686D01*
X135730792Y-71087444D01*
X135746949Y-71038909D01*
X135762414Y-70992806D01*
X135773653Y-70959569D01*
X135859174Y-70712820D01*
X135946735Y-70470394D01*
X136036274Y-70232438D01*
X136127730Y-69999100D01*
X136221041Y-69770527D01*
X136316145Y-69546868D01*
X136412982Y-69328269D01*
X136511488Y-69114878D01*
X136611604Y-68906843D01*
X136713266Y-68704310D01*
X136727252Y-68677114D01*
X136746861Y-68639101D01*
X136764195Y-68605525D01*
X136779603Y-68575740D01*
X136793433Y-68549094D01*
X136806032Y-68524941D01*
X136817750Y-68502631D01*
X136828933Y-68481514D01*
X136839930Y-68460943D01*
X136851089Y-68440269D01*
X136862758Y-68418842D01*
X136875286Y-68396014D01*
X136889019Y-68371135D01*
X136904307Y-68343558D01*
X136921498Y-68312634D01*
X136940939Y-68277712D01*
X136956745Y-68249337D01*
X136981741Y-68204811D01*
X137009035Y-68156821D01*
X137038202Y-68106079D01*
X137068822Y-68053296D01*
X137100470Y-67999184D01*
X137132726Y-67944454D01*
X137165166Y-67889818D01*
X137197367Y-67835987D01*
X137228908Y-67783671D01*
X137259365Y-67733584D01*
X137288317Y-67686435D01*
X137315340Y-67642937D01*
X137340013Y-67603800D01*
X137342211Y-67600346D01*
X137358564Y-67574675D01*
X137376771Y-67546070D01*
X137395875Y-67516042D01*
X137414916Y-67486096D01*
X137432935Y-67457742D01*
X137448973Y-67432487D01*
X137452153Y-67427478D01*
X137470015Y-67399567D01*
X137490884Y-67367369D01*
X137514412Y-67331401D01*
X137540251Y-67292181D01*
X137568053Y-67250225D01*
X137597471Y-67206053D01*
X137628155Y-67160180D01*
X137659759Y-67113124D01*
X137691933Y-67065403D01*
X137724331Y-67017534D01*
X137756604Y-66970034D01*
X137788404Y-66923420D01*
X137819383Y-66878211D01*
X137849194Y-66834923D01*
X137877487Y-66794074D01*
X137897535Y-66765302D01*
X137991264Y-66632096D01*
X138087190Y-66497590D01*
X138185482Y-66361564D01*
X138286308Y-66223794D01*
X138389836Y-66084058D01*
X138496237Y-65942135D01*
X138605677Y-65797802D01*
X138718327Y-65650838D01*
X138834354Y-65501019D01*
X138953927Y-65348124D01*
X139077215Y-65191931D01*
X139204387Y-65032218D01*
X139335611Y-64868762D01*
X139369205Y-64827120D01*
X139401441Y-64787227D01*
X139434220Y-64746717D01*
X139467334Y-64705842D01*
X139500577Y-64664856D01*
X139533741Y-64624011D01*
X139566621Y-64583560D01*
X139599009Y-64543756D01*
X139630698Y-64504853D01*
X139661481Y-64467103D01*
X139691152Y-64430760D01*
X139719504Y-64396076D01*
X139746329Y-64363304D01*
X139771421Y-64332698D01*
X139794573Y-64304510D01*
X139815578Y-64278994D01*
X139834230Y-64256402D01*
X139850320Y-64236987D01*
X139863644Y-64221003D01*
X139873993Y-64208702D01*
X139881160Y-64200338D01*
X139884940Y-64196163D01*
X139885478Y-64195719D01*
X139886650Y-64198478D01*
G37*
G36*
X141763443Y-67533992D02*
G01*
X141763899Y-67542144D01*
X141764486Y-67554715D01*
X141765171Y-67570987D01*
X141765924Y-67590240D01*
X141766714Y-67611757D01*
X141767039Y-67620998D01*
X141768073Y-67656550D01*
X141768903Y-67697037D01*
X141769531Y-67741540D01*
X141769959Y-67789138D01*
X141770189Y-67838910D01*
X141770224Y-67889936D01*
X141770065Y-67941294D01*
X141769715Y-67992066D01*
X141769176Y-68041329D01*
X141768450Y-68088165D01*
X141767539Y-68131651D01*
X141766446Y-68170868D01*
X141765694Y-68192202D01*
X141764448Y-68223646D01*
X141763290Y-68250390D01*
X141762124Y-68273590D01*
X141760857Y-68294402D01*
X141759394Y-68313985D01*
X141757642Y-68333494D01*
X141755504Y-68354086D01*
X141752888Y-68376918D01*
X141749698Y-68403147D01*
X141746211Y-68430996D01*
X141731427Y-68548195D01*
X141696774Y-68682142D01*
X141662120Y-68816089D01*
X141598907Y-68966832D01*
X141584973Y-69000009D01*
X141573004Y-69028351D01*
X141562730Y-69052441D01*
X141553880Y-69072861D01*
X141546185Y-69090194D01*
X141539373Y-69105022D01*
X141533175Y-69117926D01*
X141527319Y-69129489D01*
X141521534Y-69140294D01*
X141515552Y-69150923D01*
X141509100Y-69161957D01*
X141505279Y-69168368D01*
X141497174Y-69181919D01*
X141486567Y-69199675D01*
X141473955Y-69220805D01*
X141459834Y-69244477D01*
X141444697Y-69269862D01*
X141429042Y-69296129D01*
X141413364Y-69322446D01*
X141405642Y-69335413D01*
X141392364Y-69357661D01*
X141380304Y-69377721D01*
X141369099Y-69396140D01*
X141358387Y-69413462D01*
X141347805Y-69430233D01*
X141336992Y-69446997D01*
X141325584Y-69464299D01*
X141313221Y-69482685D01*
X141299539Y-69502700D01*
X141284178Y-69524888D01*
X141266773Y-69549796D01*
X141246964Y-69577967D01*
X141224388Y-69609947D01*
X141205110Y-69637201D01*
X141182777Y-69668668D01*
X141160232Y-69700268D01*
X141137881Y-69731442D01*
X141116131Y-69761630D01*
X141095387Y-69790272D01*
X141076055Y-69816809D01*
X141058543Y-69840680D01*
X141043256Y-69861326D01*
X141030602Y-69878188D01*
X141022579Y-69888661D01*
X141009957Y-69904921D01*
X140994400Y-69924987D01*
X140976554Y-69948023D01*
X140957064Y-69973196D01*
X140936576Y-69999673D01*
X140915736Y-70026618D01*
X140895188Y-70053199D01*
X140880828Y-70071785D01*
X140861515Y-70096639D01*
X140838567Y-70125903D01*
X140812076Y-70159467D01*
X140782132Y-70197217D01*
X140748826Y-70239040D01*
X140712249Y-70284825D01*
X140672493Y-70334460D01*
X140629647Y-70387831D01*
X140583803Y-70444826D01*
X140535051Y-70505334D01*
X140483483Y-70569241D01*
X140429190Y-70636436D01*
X140372262Y-70706805D01*
X140312790Y-70780238D01*
X140250865Y-70856620D01*
X140186578Y-70935840D01*
X140120020Y-71017786D01*
X140051282Y-71102345D01*
X139980454Y-71189405D01*
X139907628Y-71278853D01*
X139832895Y-71370577D01*
X139756345Y-71464465D01*
X139678069Y-71560404D01*
X139598158Y-71658283D01*
X139534659Y-71736014D01*
X139515359Y-71759637D01*
X139494341Y-71785367D01*
X139472586Y-71812005D01*
X139451072Y-71838353D01*
X139430777Y-71863210D01*
X139412682Y-71885379D01*
X139404143Y-71895843D01*
X139389210Y-71914138D01*
X139371005Y-71936435D01*
X139349965Y-71962199D01*
X139326527Y-71990894D01*
X139301129Y-72021986D01*
X139274206Y-72054939D01*
X139246197Y-72089220D01*
X139217538Y-72124291D01*
X139188667Y-72159620D01*
X139160021Y-72194670D01*
X139132037Y-72228907D01*
X139105151Y-72261796D01*
X139079802Y-72292802D01*
X139056426Y-72321390D01*
X139054778Y-72323405D01*
X138993735Y-72398050D01*
X138848759Y-72472313D01*
X138723402Y-72536729D01*
X138603102Y-72598966D01*
X138487553Y-72659202D01*
X138376445Y-72717612D01*
X138269469Y-72774370D01*
X138166318Y-72829654D01*
X138066683Y-72883638D01*
X137970255Y-72936498D01*
X137876727Y-72988410D01*
X137785789Y-73039550D01*
X137697133Y-73090092D01*
X137610451Y-73140213D01*
X137525433Y-73190088D01*
X137441773Y-73239893D01*
X137359161Y-73289803D01*
X137277288Y-73339994D01*
X137195847Y-73390642D01*
X137114529Y-73441922D01*
X137033025Y-73494010D01*
X136951027Y-73547082D01*
X136884641Y-73590513D01*
X136813538Y-73637473D01*
X136744616Y-73683482D01*
X136677464Y-73728842D01*
X136611673Y-73773854D01*
X136546831Y-73818817D01*
X136482529Y-73864034D01*
X136418357Y-73909805D01*
X136353905Y-73956430D01*
X136288762Y-74004211D01*
X136222519Y-74053448D01*
X136154766Y-74104443D01*
X136085092Y-74157496D01*
X136013088Y-74212908D01*
X135938343Y-74270980D01*
X135860447Y-74332013D01*
X135778990Y-74396308D01*
X135693562Y-74464164D01*
X135690299Y-74466764D01*
X135594371Y-74542761D01*
X135501864Y-74615158D01*
X135412062Y-74684506D01*
X135324249Y-74751356D01*
X135237710Y-74816257D01*
X135184876Y-74855393D01*
X135162998Y-74871525D01*
X135145397Y-74884489D01*
X135131624Y-74894587D01*
X135121235Y-74902120D01*
X135113782Y-74907389D01*
X135108818Y-74910695D01*
X135105896Y-74912340D01*
X135104570Y-74912625D01*
X135104393Y-74911852D01*
X135104918Y-74910320D01*
X135105475Y-74908931D01*
X135107010Y-74904805D01*
X135110271Y-74895927D01*
X135114983Y-74883050D01*
X135120871Y-74866928D01*
X135127659Y-74848317D01*
X135135071Y-74827970D01*
X135136439Y-74824213D01*
X135168228Y-74738564D01*
X135199630Y-74657484D01*
X135231157Y-74579750D01*
X135263323Y-74504140D01*
X135296640Y-74429433D01*
X135331623Y-74354407D01*
X135349214Y-74317805D01*
X135369189Y-74277282D01*
X135391659Y-74232862D01*
X135416043Y-74185635D01*
X135441758Y-74136694D01*
X135468222Y-74087127D01*
X135494856Y-74038027D01*
X135521076Y-73990484D01*
X135546301Y-73945589D01*
X135565830Y-73911524D01*
X135579035Y-73888721D01*
X135593480Y-73863753D01*
X135608255Y-73838197D01*
X135622448Y-73813629D01*
X135635147Y-73791627D01*
X135641552Y-73780520D01*
X135663083Y-73743523D01*
X135687591Y-73702066D01*
X135714810Y-73656568D01*
X135744476Y-73607453D01*
X135776324Y-73555141D01*
X135810092Y-73500055D01*
X135845513Y-73442615D01*
X135882325Y-73383244D01*
X135920262Y-73322363D01*
X135959060Y-73260393D01*
X135998456Y-73197757D01*
X136038184Y-73134875D01*
X136077981Y-73072170D01*
X136117582Y-73010063D01*
X136156723Y-72948976D01*
X136195140Y-72889329D01*
X136232568Y-72831546D01*
X136268743Y-72776047D01*
X136303400Y-72723254D01*
X136321681Y-72695582D01*
X136338522Y-72670143D01*
X136355353Y-72644705D01*
X136371697Y-72619989D01*
X136387078Y-72596716D01*
X136401018Y-72575609D01*
X136413042Y-72557387D01*
X136422672Y-72542774D01*
X136428156Y-72534433D01*
X136442359Y-72513004D01*
X136459592Y-72487348D01*
X136479478Y-72458009D01*
X136501641Y-72425529D01*
X136525704Y-72390449D01*
X136551290Y-72353312D01*
X136578023Y-72314661D01*
X136605527Y-72275037D01*
X136633424Y-72234983D01*
X136661339Y-72195040D01*
X136688894Y-72155753D01*
X136715713Y-72117661D01*
X136741419Y-72081309D01*
X136765637Y-72047237D01*
X136787988Y-72015989D01*
X136794424Y-72007037D01*
X136875059Y-71896267D01*
X136955534Y-71788254D01*
X137036240Y-71682545D01*
X137117564Y-71578685D01*
X137199898Y-71476220D01*
X137283630Y-71374697D01*
X137369150Y-71273662D01*
X137456847Y-71172660D01*
X137547112Y-71071238D01*
X137640333Y-70968941D01*
X137736899Y-70865316D01*
X137837202Y-70759909D01*
X137941629Y-70652266D01*
X138050571Y-70541932D01*
X138057305Y-70535171D01*
X138087650Y-70504735D01*
X138115758Y-70476586D01*
X138142087Y-70450269D01*
X138167100Y-70425334D01*
X138191255Y-70401327D01*
X138215014Y-70377797D01*
X138238835Y-70354290D01*
X138263180Y-70330354D01*
X138288509Y-70305537D01*
X138315282Y-70279387D01*
X138343959Y-70251450D01*
X138375000Y-70221275D01*
X138408866Y-70188409D01*
X138446017Y-70152399D01*
X138486912Y-70112793D01*
X138488430Y-70111324D01*
X138509807Y-70090633D01*
X138528523Y-70072536D01*
X138545147Y-70056496D01*
X138560246Y-70041976D01*
X138574388Y-70028439D01*
X138588141Y-70015348D01*
X138602073Y-70002166D01*
X138616753Y-69988356D01*
X138632748Y-69973381D01*
X138650625Y-69956704D01*
X138670954Y-69937788D01*
X138694302Y-69916096D01*
X138721237Y-69891091D01*
X138728608Y-69884250D01*
X138752195Y-69862354D01*
X138777094Y-69839235D01*
X138802423Y-69815711D01*
X138827300Y-69792600D01*
X138850845Y-69770722D01*
X138872175Y-69750896D01*
X138890410Y-69733940D01*
X138896076Y-69728669D01*
X138907586Y-69717989D01*
X138919589Y-69706913D01*
X138932346Y-69695206D01*
X138946120Y-69682634D01*
X138961171Y-69668961D01*
X138977763Y-69653952D01*
X138996156Y-69637372D01*
X139016613Y-69618987D01*
X139039396Y-69598561D01*
X139064765Y-69575859D01*
X139092983Y-69550646D01*
X139124313Y-69522687D01*
X139159014Y-69491747D01*
X139197350Y-69457591D01*
X139239582Y-69419984D01*
X139279330Y-69384602D01*
X139307917Y-69359353D01*
X139340576Y-69330851D01*
X139376812Y-69299511D01*
X139416130Y-69265753D01*
X139458034Y-69229991D01*
X139502028Y-69192644D01*
X139547617Y-69154127D01*
X139594305Y-69114858D01*
X139641597Y-69075254D01*
X139688996Y-69035731D01*
X139736009Y-68996707D01*
X139782138Y-68958598D01*
X139826888Y-68921821D01*
X139869764Y-68886793D01*
X139908315Y-68855511D01*
X140112716Y-68692337D01*
X140315622Y-68534507D01*
X140517348Y-68381791D01*
X140718208Y-68233960D01*
X140918516Y-68090783D01*
X141118584Y-67952031D01*
X141318727Y-67817474D01*
X141376706Y-67779284D01*
X141400420Y-67763767D01*
X141426078Y-67747035D01*
X141453266Y-67729354D01*
X141481568Y-67710991D01*
X141510571Y-67692211D01*
X141539859Y-67673281D01*
X141569018Y-67654469D01*
X141597634Y-67636038D01*
X141625293Y-67618258D01*
X141651578Y-67601392D01*
X141676077Y-67585709D01*
X141698375Y-67571474D01*
X141718056Y-67558954D01*
X141734707Y-67548415D01*
X141747912Y-67540123D01*
X141757258Y-67534345D01*
X141762330Y-67531347D01*
X141763147Y-67530979D01*
X141763443Y-67533992D01*
G37*
G36*
X140082957Y-71318990D02*
G01*
X140083835Y-71320842D01*
X140084881Y-71324583D01*
X140086194Y-71330748D01*
X140087868Y-71339874D01*
X140090002Y-71352495D01*
X140092692Y-71369147D01*
X140096035Y-71390366D01*
X140100127Y-71416686D01*
X140101481Y-71425436D01*
X140112146Y-71500778D01*
X140120260Y-71572260D01*
X140125788Y-71639502D01*
X140128696Y-71702127D01*
X140129170Y-71736014D01*
X140128911Y-71757903D01*
X140128137Y-71784639D01*
X140126901Y-71815237D01*
X140125256Y-71848712D01*
X140123255Y-71884080D01*
X140120953Y-71920355D01*
X140118403Y-71956551D01*
X140115658Y-71991685D01*
X140114613Y-72004107D01*
X140112805Y-72025265D01*
X140111046Y-72046000D01*
X140109442Y-72065086D01*
X140108093Y-72081298D01*
X140107104Y-72093412D01*
X140106820Y-72096982D01*
X140105504Y-72109867D01*
X140103843Y-72117872D01*
X140101587Y-72121976D01*
X140100232Y-72122843D01*
X140096297Y-72124312D01*
X140087313Y-72127623D01*
X140073737Y-72132609D01*
X140056022Y-72139104D01*
X140034627Y-72146941D01*
X140010005Y-72155953D01*
X139982613Y-72165973D01*
X139952908Y-72176835D01*
X139921344Y-72188371D01*
X139888377Y-72200415D01*
X139854463Y-72212800D01*
X139836221Y-72219460D01*
X139772438Y-72242739D01*
X139714018Y-72264050D01*
X139660822Y-72283444D01*
X139612711Y-72300972D01*
X139569546Y-72316683D01*
X139531189Y-72330628D01*
X139497500Y-72342858D01*
X139468342Y-72353422D01*
X139443574Y-72362370D01*
X139423058Y-72369754D01*
X139406656Y-72375624D01*
X139394228Y-72380029D01*
X139385636Y-72383020D01*
X139380741Y-72384648D01*
X139379415Y-72385004D01*
X139378060Y-72382362D01*
X139377664Y-72375471D01*
X139377974Y-72369622D01*
X139378434Y-72363393D01*
X139379190Y-72352024D01*
X139380198Y-72336226D01*
X139381413Y-72316708D01*
X139382792Y-72294183D01*
X139384291Y-72269359D01*
X139385866Y-72242947D01*
X139386532Y-72231666D01*
X139388126Y-72205367D01*
X139389696Y-72180841D01*
X139391198Y-72158714D01*
X139392584Y-72139616D01*
X139393808Y-72124172D01*
X139394824Y-72113011D01*
X139395585Y-72106762D01*
X139395854Y-72105677D01*
X139398179Y-72102791D01*
X139403941Y-72095976D01*
X139412724Y-72085715D01*
X139424110Y-72072492D01*
X139437683Y-72056792D01*
X139453025Y-72039097D01*
X139469719Y-72019891D01*
X139477086Y-72011432D01*
X139498592Y-71986741D01*
X139522689Y-71959064D01*
X139548225Y-71929726D01*
X139574045Y-71900054D01*
X139598997Y-71871371D01*
X139621927Y-71845005D01*
X139633957Y-71831167D01*
X139685390Y-71772003D01*
X139733095Y-71717138D01*
X139777185Y-71666446D01*
X139817771Y-71619798D01*
X139854966Y-71577067D01*
X139888880Y-71538124D01*
X139919626Y-71502842D01*
X139947314Y-71471094D01*
X139972058Y-71442751D01*
X139993969Y-71417685D01*
X140013157Y-71395770D01*
X140029736Y-71376877D01*
X140043816Y-71360878D01*
X140055510Y-71347646D01*
X140064928Y-71337053D01*
X140072183Y-71328971D01*
X140077387Y-71323272D01*
X140080651Y-71319829D01*
X140082087Y-71318513D01*
X140082151Y-71318492D01*
X140082957Y-71318990D01*
G37*
D13*
%TO.C,R11*%
X143314564Y-119735000D02*
X142860436Y-119735000D01*
X143314564Y-118265000D02*
X142860436Y-118265000D01*
%TO.C,U3*%
X142137500Y-99940000D02*
X140337500Y-99940000D01*
X142137500Y-103060000D02*
X141337500Y-103060000D01*
X142137500Y-99940000D02*
X142937500Y-99940000D01*
X142137500Y-103060000D02*
X142937500Y-103060000D01*
%TO.C,U1*%
X151637500Y-133060000D02*
X150837500Y-133060000D01*
X151637500Y-129940000D02*
X152437500Y-129940000D01*
X151637500Y-133060000D02*
X152437500Y-133060000D01*
X151637500Y-129940000D02*
X149837500Y-129940000D01*
%TO.C,C12*%
X148265000Y-125688748D02*
X148265000Y-126211252D01*
X149735000Y-125688748D02*
X149735000Y-126211252D01*
%TO.C,D3*%
X151350000Y-123400000D02*
X154650000Y-123400000D01*
X154650000Y-123400000D02*
X154650000Y-118000000D01*
X151350000Y-123400000D02*
X151350000Y-118000000D01*
%TO.C,SW3*%
X135130000Y-92590000D02*
X135130000Y-89910000D01*
X135280000Y-94370000D02*
X141220000Y-94370000D01*
X135280000Y-88130000D02*
X141220000Y-88130000D01*
X141370000Y-89910000D02*
X141370000Y-92590000D01*
X139664214Y-91250000D02*
G75*
G03*
X139664214Y-91250000I-1414214J0D01*
G01*
%TO.C,R2*%
X180389564Y-100735000D02*
X179935436Y-100735000D01*
X180389564Y-99265000D02*
X179935436Y-99265000D01*
%TO.C,U6*%
X157725000Y-106975000D02*
X157225000Y-106975000D01*
X157725000Y-101775000D02*
X157725000Y-102275000D01*
X154425000Y-106975000D02*
X154425000Y-106475000D01*
X157225000Y-101775000D02*
X157725000Y-101775000D01*
X154925000Y-106975000D02*
X154425000Y-106975000D01*
X154525000Y-101775000D02*
X155475000Y-101775000D01*
X157725000Y-106475000D02*
X157725000Y-106975000D01*
%TO.C,J1*%
X157230000Y-136170000D02*
X157230000Y-138830000D01*
X157230000Y-138830000D02*
X152090000Y-138830000D01*
X158500000Y-136170000D02*
X159830000Y-136170000D01*
X159830000Y-136170000D02*
X159830000Y-137500000D01*
X152090000Y-136170000D02*
X152090000Y-138830000D01*
X157230000Y-136170000D02*
X152090000Y-136170000D01*
%TO.C,R6*%
X158265000Y-132772936D02*
X158265000Y-133227064D01*
X159735000Y-132772936D02*
X159735000Y-133227064D01*
%TO.C,C4*%
X150688748Y-96765000D02*
X151211252Y-96765000D01*
X150688748Y-98235000D02*
X151211252Y-98235000D01*
%TO.C,R10*%
X146389564Y-101235000D02*
X145935436Y-101235000D01*
X146389564Y-99765000D02*
X145935436Y-99765000D01*
%TO.C,C10*%
X183451248Y-84515000D02*
X183973752Y-84515000D01*
X183451248Y-85985000D02*
X183973752Y-85985000D01*
%TO.C,C5*%
X155235000Y-97311252D02*
X155235000Y-96788748D01*
X153765000Y-97311252D02*
X153765000Y-96788748D01*
%TO.C,R4*%
X154735000Y-109685436D02*
X154735000Y-110139564D01*
X153265000Y-109685436D02*
X153265000Y-110139564D01*
%TO.C,R7*%
X140739564Y-85765000D02*
X140285436Y-85765000D01*
X140739564Y-87235000D02*
X140285436Y-87235000D01*
%TO.C,C18*%
X144765000Y-130788748D02*
X144765000Y-131311252D01*
X146235000Y-130788748D02*
X146235000Y-131311252D01*
%TO.C,R1*%
X174772936Y-91235000D02*
X175227064Y-91235000D01*
X174772936Y-89765000D02*
X175227064Y-89765000D01*
%TO.C,SW2*%
X166050000Y-107100000D02*
X163450000Y-107100000D01*
X168050000Y-98900000D02*
X168050000Y-99900000D01*
X161500000Y-107000000D02*
X161500000Y-101000000D01*
X166050000Y-100900000D02*
X163450000Y-100900000D01*
X167050000Y-98900000D02*
X168050000Y-98900000D01*
X168000000Y-106900000D02*
X168000000Y-101100000D01*
%TO.C,D5*%
X131700000Y-108000000D02*
X131700000Y-110000000D01*
X136000000Y-108000000D02*
X131700000Y-108000000D01*
X131700000Y-110000000D02*
X136000000Y-110000000D01*
%TO.C,C3*%
X147985000Y-90188748D02*
X147985000Y-90711252D01*
X146515000Y-90188748D02*
X146515000Y-90711252D01*
%TO.C,R5*%
X153265000Y-113185436D02*
X153265000Y-113639564D01*
X154735000Y-113185436D02*
X154735000Y-113639564D01*
%TO.C,D4*%
X147350000Y-123400000D02*
X147350000Y-118000000D01*
X150650000Y-123400000D02*
X150650000Y-118000000D01*
X147350000Y-123400000D02*
X150650000Y-123400000D01*
%TO.C,R9*%
X148735000Y-97227064D02*
X148735000Y-96772936D01*
X147265000Y-97227064D02*
X147265000Y-96772936D01*
%TO.C,C9*%
X136811252Y-85765000D02*
X136288748Y-85765000D01*
X136811252Y-87235000D02*
X136288748Y-87235000D01*
%TO.C,R14*%
X138765000Y-116185436D02*
X138765000Y-116639564D01*
X140235000Y-116185436D02*
X140235000Y-116639564D01*
%TO.C,C7*%
X180735000Y-102788748D02*
X180735000Y-103311252D01*
X179265000Y-102788748D02*
X179265000Y-103311252D01*
%TO.C,D2*%
X141600000Y-95237500D02*
X141600000Y-96037500D01*
X146250000Y-98437500D02*
X141600000Y-98437500D01*
X146250000Y-95237500D02*
X141600000Y-95237500D01*
%TO.C,C6*%
X170188748Y-95265000D02*
X170711252Y-95265000D01*
X170188748Y-96735000D02*
X170711252Y-96735000D01*
%TO.C,JP1*%
X164000000Y-98400000D02*
X162000000Y-98400000D01*
X162000000Y-95600000D02*
X164000000Y-95600000D01*
X164000000Y-95600000D02*
X164000000Y-98400000D01*
X162000000Y-98400000D02*
X162000000Y-95600000D01*
%TO.C,C17*%
X152011252Y-102235000D02*
X151488748Y-102235000D01*
X152011252Y-100765000D02*
X151488748Y-100765000D01*
%TO.C,R15*%
X179265000Y-96685436D02*
X179265000Y-97139564D01*
X180735000Y-96685436D02*
X180735000Y-97139564D01*
%TO.C,C8*%
X169265000Y-102788748D02*
X169265000Y-103311252D01*
X170735000Y-102788748D02*
X170735000Y-103311252D01*
%TO.C,SW4*%
X178780000Y-94370000D02*
X184720000Y-94370000D01*
X178630000Y-92590000D02*
X178630000Y-89910000D01*
X178780000Y-88130000D02*
X184720000Y-88130000D01*
X184870000Y-89910000D02*
X184870000Y-92590000D01*
X183164214Y-91250000D02*
G75*
G03*
X183164214Y-91250000I-1414214J0D01*
G01*
%TO.C,R3*%
X169265000Y-98685436D02*
X169265000Y-99139564D01*
X170735000Y-98685436D02*
X170735000Y-99139564D01*
%TO.C,R13*%
X149314564Y-108265000D02*
X148860436Y-108265000D01*
X149314564Y-109735000D02*
X148860436Y-109735000D01*
%TO.C,TH1*%
X174130000Y-94880000D02*
X177370000Y-94880000D01*
X177370000Y-97055000D02*
X177370000Y-97120000D01*
X174130000Y-97120000D02*
X177370000Y-97120000D01*
X174130000Y-94880000D02*
X174130000Y-94945000D01*
X177370000Y-94880000D02*
X177370000Y-94945000D01*
X174130000Y-97055000D02*
X174130000Y-97120000D01*
%TO.C,DS1*%
X148750000Y-93500000D02*
X148750000Y-89000000D01*
X170500000Y-93500000D02*
X171250000Y-93500000D01*
X171250000Y-93500000D02*
X171250000Y-89250000D01*
X171250000Y-89250000D02*
X171250000Y-89000000D01*
X149500000Y-93500000D02*
X148750000Y-93500000D01*
D14*
X152400000Y-89250000D02*
G75*
G03*
X152400000Y-89250000I-400000J0D01*
G01*
X168400000Y-89250000D02*
G75*
G03*
X168400000Y-89250000I-400000J0D01*
G01*
D13*
%TO.C,R8*%
X179435436Y-85985000D02*
X179889564Y-85985000D01*
X179435436Y-84515000D02*
X179889564Y-84515000D01*
%TO.C,SW5*%
X133750000Y-131000000D02*
X136750000Y-131000000D01*
X136750000Y-131000000D02*
X136750000Y-122000000D01*
X136750000Y-122000000D02*
X133750000Y-122000000D01*
X133750000Y-122000000D02*
X133750000Y-131000000D01*
X134250000Y-128500000D02*
X136250000Y-128500000D01*
X136250000Y-128500000D02*
X136250000Y-124500000D01*
X136250000Y-124500000D02*
X134250000Y-124500000D01*
X134250000Y-124500000D02*
X134250000Y-128500000D01*
%TO.C,Q1*%
X142225000Y-104825000D02*
X144175000Y-104825000D01*
X142225000Y-104825000D02*
X138775000Y-104825000D01*
X142225000Y-109945000D02*
X144175000Y-109945000D01*
X142225000Y-109945000D02*
X140275000Y-109945000D01*
%TO.C,C11*%
X147938748Y-101765000D02*
X148461252Y-101765000D01*
X147938748Y-103235000D02*
X148461252Y-103235000D01*
%TO.C,C1*%
X157265000Y-96288748D02*
X157265000Y-96811252D01*
X158735000Y-96288748D02*
X158735000Y-96811252D01*
%TO.C,U5*%
X141440000Y-125000000D02*
X141440000Y-123050000D01*
X146560000Y-125000000D02*
X146560000Y-121550000D01*
X141440000Y-125000000D02*
X141440000Y-126950000D01*
X146560000Y-125000000D02*
X146560000Y-126950000D01*
%TO.C,U4*%
X143862500Y-111890000D02*
X142062500Y-111890000D01*
X143862500Y-111890000D02*
X144662500Y-111890000D01*
X143862500Y-115010000D02*
X144662500Y-115010000D01*
X143862500Y-115010000D02*
X143062500Y-115010000D01*
%TO.C,R12*%
X142610436Y-117235000D02*
X143064564Y-117235000D01*
X142610436Y-115765000D02*
X143064564Y-115765000D01*
%TO.C,J2*%
X148000000Y-135280000D02*
X148870000Y-135280000D01*
X146300000Y-135050000D02*
X146600000Y-134750000D01*
X148870000Y-135280000D02*
X148870000Y-137350000D01*
X141130000Y-135280000D02*
X141130000Y-137350000D01*
X141130000Y-135280000D02*
X142000000Y-135280000D01*
X148870000Y-139750000D02*
X148870000Y-140000000D01*
X146000000Y-134750000D02*
X146600000Y-134750000D01*
X141130000Y-139750000D02*
X141130000Y-140000000D01*
X146300000Y-135050000D02*
X146000000Y-134750000D01*
%TO.C,C2*%
X166711252Y-95265000D02*
X166188748Y-95265000D01*
X166711252Y-96735000D02*
X166188748Y-96735000D01*
%TO.C,U2*%
X158200000Y-110880000D02*
X158200000Y-112540000D01*
X158200000Y-129120000D02*
X158200000Y-127460000D01*
X182370000Y-110890000D02*
X189450000Y-110875000D01*
X158560000Y-110880000D02*
X158200000Y-110880000D01*
X182370000Y-110890000D02*
X182370000Y-110500000D01*
X189450000Y-110875000D02*
X189450000Y-129130000D01*
X158460000Y-129120000D02*
X158200000Y-129120000D01*
X183030000Y-129130000D02*
X189450000Y-129130000D01*
%TO.C,D1*%
X166900000Y-134600000D02*
X166900000Y-133800000D01*
X162250000Y-131400000D02*
X166900000Y-131400000D01*
X162250000Y-134600000D02*
X166900000Y-134600000D01*
%TO.C,C16*%
X153485000Y-104488748D02*
X153485000Y-105011252D01*
X152015000Y-104488748D02*
X152015000Y-105011252D01*
%TO.C,SW1*%
X178000000Y-106900000D02*
X178000000Y-101100000D01*
X171500000Y-107000000D02*
X171500000Y-101000000D01*
X176050000Y-100900000D02*
X173450000Y-100900000D01*
X177050000Y-98900000D02*
X178050000Y-98900000D01*
X178050000Y-98900000D02*
X178050000Y-99900000D01*
X176050000Y-107100000D02*
X173450000Y-107100000D01*
%TO.C,C15*%
X147165000Y-129288748D02*
X147165000Y-129811252D01*
X148635000Y-129288748D02*
X148635000Y-129811252D01*
%TO.C,C14*%
X149311252Y-112735000D02*
X148788748Y-112735000D01*
X149311252Y-111265000D02*
X148788748Y-111265000D01*
%TO.C,J3*%
X132670000Y-104270000D02*
X135330000Y-104270000D01*
X132670000Y-101670000D02*
X134000000Y-101670000D01*
X132670000Y-104270000D02*
X132670000Y-106870000D01*
X132670000Y-103000000D02*
X132670000Y-101670000D01*
X132670000Y-106870000D02*
X135330000Y-106870000D01*
X135330000Y-104270000D02*
X135330000Y-106870000D01*
%TO.C,C13*%
X141788748Y-131735000D02*
X142311252Y-131735000D01*
X141788748Y-130265000D02*
X142311252Y-130265000D01*
%TD*%
M02*
