M48
; DRILL file {KiCad (6.0.0)} date Fri Feb  4 14:48:28 2022
; FORMAT={-:-/ absolute / metric / decimal}
; #@! TF.CreationDate,2022-02-04T14:48:28+01:00
; #@! TF.GenerationSoftware,Kicad,Pcbnew,(6.0.0)
; #@! TF.FileFunction,Plated,1,2,PTH
FMAT,2
METRIC
; #@! TA.AperFunction,Plated,PTH,ViaDrill
T1C0.400
; #@! TA.AperFunction,Plated,PTH,ComponentDrill
T2C0.600
; #@! TA.AperFunction,Plated,PTH,ComponentDrill
T3C0.650
; #@! TA.AperFunction,Plated,PTH,ComponentDrill
T4C0.800
; #@! TA.AperFunction,Plated,PTH,ComponentDrill
T5C1.000
; #@! TA.AperFunction,Plated,PTH,ComponentDrill
T6C1.520
; #@! TA.AperFunction,Plated,PTH,ComponentDrill
T7C3.200
%
G90
G05
T1
X130.5Y-109.5
X134.25Y-86.5
X134.25Y-109.0
X138.25Y-108.0
X139.5Y-101.5
X139.5Y-118.75
X140.25Y-124.0
X141.0Y-115.25
X141.0Y-122.5
X141.0Y-129.5
X143.75Y-134.5
X144.089Y-129.25
X147.0Y-99.25
X147.5Y-92.5
X147.75Y-132.0
X148.5Y-134.75
X149.25Y-103.75
X149.25Y-131.75
X149.75Y-90.5
X149.75Y-133.75
X149.75Y-135.75
X150.75Y-100.0
X150.75Y-127.0
X151.25Y-105.0
X151.25Y-133.75
X151.25Y-135.75
X152.5Y-108.15
X152.5Y-109.849
X153.25Y-116.0
X154.5Y-132.5
X154.75Y-90.25
X155.0Y-101.5
X155.5Y-114.5
X155.762Y-131.238
X156.25Y-90.25
X156.5Y-113.5
X156.5Y-115.0
X156.75Y-126.75
X157.0Y-119.25
X157.0Y-123.75
X157.381Y-98.631
X157.75Y-90.25
X159.5Y-106.5
X160.0Y-123.75
X160.5Y-90.25
X160.5Y-113.5
X160.5Y-115.0
X160.5Y-116.25
X161.0Y-108.0
X161.0Y-126.0
X161.0Y-131.0
X161.75Y-119.25
X164.25Y-100.0
X165.25Y-112.75
X165.25Y-115.75
X165.5Y-94.75
X168.0Y-133.0
X170.262Y-105.238
X170.5Y-113.0
X170.75Y-109.75
X171.25Y-92.5
X171.5Y-116.0
X172.25Y-94.75
X172.5Y-98.25
X172.5Y-106.25
X173.75Y-118.75
X173.775Y-104.75
X175.5Y-109.5
X176.0Y-89.0
X177.25Y-130.25
X177.75Y-104.75
X180.0Y-105.25
X181.5Y-98.0
X181.75Y-109.5
X181.75Y-130.25
X186.325Y-85.25
T4
X174.5Y-96.0
X177.0Y-96.0
T5
X134.0Y-103.0
X134.0Y-105.54
X135.0Y-89.0
X135.0Y-93.5
X141.5Y-89.0
X141.5Y-93.5
X153.42Y-137.5
X155.96Y-137.5
X158.5Y-137.5
X178.5Y-89.0
X178.5Y-93.5
X185.0Y-89.0
X185.0Y-93.5
T6
X134.0Y-112.92
X134.0Y-118.0
T7
X135.0Y-56.35
X135.25Y-135.0
X185.0Y-55.0
T2
X140.825Y-138.2G85X140.825Y-138.9
G05
X149.175Y-138.2G85X149.175Y-138.9
G05
T3
X142.775Y-135.45G85X142.775Y-135.65
G05
X147.225Y-135.45G85X147.225Y-135.65
G05
T0
M30
