%FSLAX45Y45*%
G04 Gerber Fmt 4.5, Leading zero omitted, Abs format (unit mm)*
G04 Created by KiCad (PCBNEW (6.0.0)) date 2022-02-04 14:48:30*
%MOMM*%
%LPD*%
G01*
G04 APERTURE LIST*
%TA.AperFunction,Profile*%
%ADD10C,0.100000*%
%TD*%
%ADD11C,0.200000*%
%ADD12C,0.320000*%
G04 APERTURE END LIST*
D10*
X18500000Y-14000000D02*
G75*
G03*
X19000000Y-13500000I0J500000D01*
G01*
X14875000Y-14000000D02*
X18500000Y-14000000D01*
X19000000Y-5500000D02*
G75*
G03*
X18500000Y-5000000I-500000J0D01*
G01*
X14125000Y-14000000D02*
X13500000Y-14000000D01*
X13000000Y-13500000D02*
G75*
G03*
X13500000Y-14000000I500000J0D01*
G01*
X13000000Y-5500000D02*
X13000000Y-13500000D01*
X13500000Y-5000000D02*
G75*
G03*
X13000000Y-5500000I0J-500000D01*
G01*
X13500000Y-5000000D02*
X18500000Y-5000000D01*
X19000000Y-13500000D02*
X19000000Y-5500000D01*
D11*
D12*
X18340000Y-13340000D02*
X18660000Y-13660000D01*
X18660000Y-13340000D02*
X18340000Y-13660000D01*
D11*
X13252619Y-14315476D02*
X13252619Y-14115476D01*
X13300238Y-14115476D01*
X13328809Y-14125000D01*
X13347857Y-14144048D01*
X13357381Y-14163095D01*
X13366905Y-14201190D01*
X13366905Y-14229762D01*
X13357381Y-14267857D01*
X13347857Y-14286905D01*
X13328809Y-14305952D01*
X13300238Y-14315476D01*
X13252619Y-14315476D01*
X13452619Y-14315476D02*
X13452619Y-14182143D01*
X13452619Y-14220238D02*
X13462143Y-14201190D01*
X13471667Y-14191667D01*
X13490714Y-14182143D01*
X13509762Y-14182143D01*
X13576428Y-14315476D02*
X13576428Y-14182143D01*
X13576428Y-14115476D02*
X13566905Y-14125000D01*
X13576428Y-14134524D01*
X13585952Y-14125000D01*
X13576428Y-14115476D01*
X13576428Y-14134524D01*
X13700238Y-14315476D02*
X13681190Y-14305952D01*
X13671667Y-14286905D01*
X13671667Y-14115476D01*
X13805000Y-14315476D02*
X13785952Y-14305952D01*
X13776428Y-14286905D01*
X13776428Y-14115476D01*
X14033571Y-14315476D02*
X14033571Y-14115476D01*
X14100238Y-14258333D01*
X14166905Y-14115476D01*
X14166905Y-14315476D01*
X14347857Y-14315476D02*
X14347857Y-14210714D01*
X14338333Y-14191667D01*
X14319286Y-14182143D01*
X14281190Y-14182143D01*
X14262143Y-14191667D01*
X14347857Y-14305952D02*
X14328809Y-14315476D01*
X14281190Y-14315476D01*
X14262143Y-14305952D01*
X14252619Y-14286905D01*
X14252619Y-14267857D01*
X14262143Y-14248809D01*
X14281190Y-14239286D01*
X14328809Y-14239286D01*
X14347857Y-14229762D01*
X14443095Y-14182143D02*
X14443095Y-14382143D01*
X14443095Y-14191667D02*
X14462143Y-14182143D01*
X14500238Y-14182143D01*
X14519286Y-14191667D01*
X14528809Y-14201190D01*
X14538333Y-14220238D01*
X14538333Y-14277381D01*
X14528809Y-14296428D01*
X14519286Y-14305952D01*
X14500238Y-14315476D01*
X14462143Y-14315476D01*
X14443095Y-14305952D01*
X14624048Y-14296428D02*
X14633571Y-14305952D01*
X14624048Y-14315476D01*
X14614524Y-14305952D01*
X14624048Y-14296428D01*
X14624048Y-14315476D01*
X14624048Y-14191667D02*
X14633571Y-14201190D01*
X14624048Y-14210714D01*
X14614524Y-14201190D01*
X14624048Y-14191667D01*
X14624048Y-14210714D01*
X12795000Y-14545000D02*
X12995000Y-14745000D01*
X12995000Y-14545000D02*
X12795000Y-14745000D01*
X13233571Y-14535476D02*
X13357381Y-14535476D01*
X13290714Y-14611667D01*
X13319286Y-14611667D01*
X13338333Y-14621190D01*
X13347857Y-14630714D01*
X13357381Y-14649762D01*
X13357381Y-14697381D01*
X13347857Y-14716428D01*
X13338333Y-14725952D01*
X13319286Y-14735476D01*
X13262143Y-14735476D01*
X13243095Y-14725952D01*
X13233571Y-14716428D01*
X13443095Y-14716428D02*
X13452619Y-14725952D01*
X13443095Y-14735476D01*
X13433571Y-14725952D01*
X13443095Y-14716428D01*
X13443095Y-14735476D01*
X13528809Y-14554524D02*
X13538333Y-14545000D01*
X13557381Y-14535476D01*
X13605000Y-14535476D01*
X13624048Y-14545000D01*
X13633571Y-14554524D01*
X13643095Y-14573571D01*
X13643095Y-14592619D01*
X13633571Y-14621190D01*
X13519286Y-14735476D01*
X13643095Y-14735476D01*
X13766905Y-14535476D02*
X13785952Y-14535476D01*
X13805000Y-14545000D01*
X13814524Y-14554524D01*
X13824048Y-14573571D01*
X13833571Y-14611667D01*
X13833571Y-14659286D01*
X13824048Y-14697381D01*
X13814524Y-14716428D01*
X13805000Y-14725952D01*
X13785952Y-14735476D01*
X13766905Y-14735476D01*
X13747857Y-14725952D01*
X13738333Y-14716428D01*
X13728809Y-14697381D01*
X13719286Y-14659286D01*
X13719286Y-14611667D01*
X13728809Y-14573571D01*
X13738333Y-14554524D01*
X13747857Y-14545000D01*
X13766905Y-14535476D01*
X13957381Y-14535476D02*
X13976428Y-14535476D01*
X13995476Y-14545000D01*
X14005000Y-14554524D01*
X14014524Y-14573571D01*
X14024048Y-14611667D01*
X14024048Y-14659286D01*
X14014524Y-14697381D01*
X14005000Y-14716428D01*
X13995476Y-14725952D01*
X13976428Y-14735476D01*
X13957381Y-14735476D01*
X13938333Y-14725952D01*
X13928809Y-14716428D01*
X13919286Y-14697381D01*
X13909762Y-14659286D01*
X13909762Y-14611667D01*
X13919286Y-14573571D01*
X13928809Y-14554524D01*
X13938333Y-14545000D01*
X13957381Y-14535476D01*
X14109762Y-14735476D02*
X14109762Y-14602143D01*
X14109762Y-14621190D02*
X14119286Y-14611667D01*
X14138333Y-14602143D01*
X14166905Y-14602143D01*
X14185952Y-14611667D01*
X14195476Y-14630714D01*
X14195476Y-14735476D01*
X14195476Y-14630714D02*
X14205000Y-14611667D01*
X14224048Y-14602143D01*
X14252619Y-14602143D01*
X14271667Y-14611667D01*
X14281190Y-14630714D01*
X14281190Y-14735476D01*
X14376428Y-14735476D02*
X14376428Y-14602143D01*
X14376428Y-14621190D02*
X14385952Y-14611667D01*
X14405000Y-14602143D01*
X14433571Y-14602143D01*
X14452619Y-14611667D01*
X14462143Y-14630714D01*
X14462143Y-14735476D01*
X14462143Y-14630714D02*
X14471667Y-14611667D01*
X14490714Y-14602143D01*
X14519286Y-14602143D01*
X14538333Y-14611667D01*
X14547857Y-14630714D01*
X14547857Y-14735476D01*
X14938333Y-14525952D02*
X14766905Y-14783095D01*
X15195476Y-14535476D02*
X15214524Y-14535476D01*
X15233571Y-14545000D01*
X15243095Y-14554524D01*
X15252619Y-14573571D01*
X15262143Y-14611667D01*
X15262143Y-14659286D01*
X15252619Y-14697381D01*
X15243095Y-14716428D01*
X15233571Y-14725952D01*
X15214524Y-14735476D01*
X15195476Y-14735476D01*
X15176428Y-14725952D01*
X15166905Y-14716428D01*
X15157381Y-14697381D01*
X15147857Y-14659286D01*
X15147857Y-14611667D01*
X15157381Y-14573571D01*
X15166905Y-14554524D01*
X15176428Y-14545000D01*
X15195476Y-14535476D01*
X15347857Y-14716428D02*
X15357381Y-14725952D01*
X15347857Y-14735476D01*
X15338333Y-14725952D01*
X15347857Y-14716428D01*
X15347857Y-14735476D01*
X15547857Y-14735476D02*
X15433571Y-14735476D01*
X15490714Y-14735476D02*
X15490714Y-14535476D01*
X15471667Y-14564048D01*
X15452619Y-14583095D01*
X15433571Y-14592619D01*
X15624048Y-14554524D02*
X15633571Y-14545000D01*
X15652619Y-14535476D01*
X15700238Y-14535476D01*
X15719286Y-14545000D01*
X15728809Y-14554524D01*
X15738333Y-14573571D01*
X15738333Y-14592619D01*
X15728809Y-14621190D01*
X15614524Y-14735476D01*
X15738333Y-14735476D01*
X15909762Y-14535476D02*
X15871667Y-14535476D01*
X15852619Y-14545000D01*
X15843095Y-14554524D01*
X15824048Y-14583095D01*
X15814524Y-14621190D01*
X15814524Y-14697381D01*
X15824048Y-14716428D01*
X15833571Y-14725952D01*
X15852619Y-14735476D01*
X15890714Y-14735476D01*
X15909762Y-14725952D01*
X15919286Y-14716428D01*
X15928809Y-14697381D01*
X15928809Y-14649762D01*
X15919286Y-14630714D01*
X15909762Y-14621190D01*
X15890714Y-14611667D01*
X15852619Y-14611667D01*
X15833571Y-14621190D01*
X15824048Y-14630714D01*
X15814524Y-14649762D01*
X16052619Y-14535476D02*
X16071667Y-14535476D01*
X16090714Y-14545000D01*
X16100238Y-14554524D01*
X16109762Y-14573571D01*
X16119286Y-14611667D01*
X16119286Y-14659286D01*
X16109762Y-14697381D01*
X16100238Y-14716428D01*
X16090714Y-14725952D01*
X16071667Y-14735476D01*
X16052619Y-14735476D01*
X16033571Y-14725952D01*
X16024048Y-14716428D01*
X16014524Y-14697381D01*
X16005000Y-14659286D01*
X16005000Y-14611667D01*
X16014524Y-14573571D01*
X16024048Y-14554524D01*
X16033571Y-14545000D01*
X16052619Y-14535476D01*
X16195476Y-14535476D02*
X16195476Y-14573571D01*
X16271667Y-14535476D02*
X16271667Y-14573571D01*
X16566905Y-14811667D02*
X16557381Y-14802143D01*
X16538333Y-14773571D01*
X16528809Y-14754524D01*
X16519286Y-14725952D01*
X16509762Y-14678333D01*
X16509762Y-14640238D01*
X16519286Y-14592619D01*
X16528809Y-14564048D01*
X16538333Y-14545000D01*
X16557381Y-14516428D01*
X16566905Y-14506905D01*
X16747857Y-14735476D02*
X16633571Y-14735476D01*
X16690714Y-14735476D02*
X16690714Y-14535476D01*
X16671667Y-14564048D01*
X16652619Y-14583095D01*
X16633571Y-14592619D01*
X16985952Y-14735476D02*
X16985952Y-14535476D01*
X17071667Y-14735476D02*
X17071667Y-14630714D01*
X17062143Y-14611667D01*
X17043095Y-14602143D01*
X17014524Y-14602143D01*
X16995476Y-14611667D01*
X16985952Y-14621190D01*
X17195476Y-14735476D02*
X17176429Y-14725952D01*
X17166905Y-14716428D01*
X17157381Y-14697381D01*
X17157381Y-14640238D01*
X17166905Y-14621190D01*
X17176429Y-14611667D01*
X17195476Y-14602143D01*
X17224048Y-14602143D01*
X17243095Y-14611667D01*
X17252619Y-14621190D01*
X17262143Y-14640238D01*
X17262143Y-14697381D01*
X17252619Y-14716428D01*
X17243095Y-14725952D01*
X17224048Y-14735476D01*
X17195476Y-14735476D01*
X17376429Y-14735476D02*
X17357381Y-14725952D01*
X17347857Y-14706905D01*
X17347857Y-14535476D01*
X17528810Y-14725952D02*
X17509762Y-14735476D01*
X17471667Y-14735476D01*
X17452619Y-14725952D01*
X17443095Y-14706905D01*
X17443095Y-14630714D01*
X17452619Y-14611667D01*
X17471667Y-14602143D01*
X17509762Y-14602143D01*
X17528810Y-14611667D01*
X17538333Y-14630714D01*
X17538333Y-14649762D01*
X17443095Y-14668809D01*
X17605000Y-14811667D02*
X17614524Y-14802143D01*
X17633571Y-14773571D01*
X17643095Y-14754524D01*
X17652619Y-14725952D01*
X17662143Y-14678333D01*
X17662143Y-14640238D01*
X17652619Y-14592619D01*
X17643095Y-14564048D01*
X17633571Y-14545000D01*
X17614524Y-14516428D01*
X17605000Y-14506905D01*
X17966905Y-14811667D02*
X17957381Y-14802143D01*
X17938333Y-14773571D01*
X17928810Y-14754524D01*
X17919286Y-14725952D01*
X17909762Y-14678333D01*
X17909762Y-14640238D01*
X17919286Y-14592619D01*
X17928810Y-14564048D01*
X17938333Y-14545000D01*
X17957381Y-14516428D01*
X17966905Y-14506905D01*
X18043095Y-14602143D02*
X18043095Y-14735476D01*
X18043095Y-14621190D02*
X18052619Y-14611667D01*
X18071667Y-14602143D01*
X18100238Y-14602143D01*
X18119286Y-14611667D01*
X18128810Y-14630714D01*
X18128810Y-14735476D01*
X18252619Y-14735476D02*
X18233571Y-14725952D01*
X18224048Y-14716428D01*
X18214524Y-14697381D01*
X18214524Y-14640238D01*
X18224048Y-14621190D01*
X18233571Y-14611667D01*
X18252619Y-14602143D01*
X18281190Y-14602143D01*
X18300238Y-14611667D01*
X18309762Y-14621190D01*
X18319286Y-14640238D01*
X18319286Y-14697381D01*
X18309762Y-14716428D01*
X18300238Y-14725952D01*
X18281190Y-14735476D01*
X18252619Y-14735476D01*
X18376429Y-14602143D02*
X18452619Y-14602143D01*
X18405000Y-14535476D02*
X18405000Y-14706905D01*
X18414524Y-14725952D01*
X18433571Y-14735476D01*
X18452619Y-14735476D01*
X18671667Y-14602143D02*
X18671667Y-14802143D01*
X18671667Y-14611667D02*
X18690714Y-14602143D01*
X18728810Y-14602143D01*
X18747857Y-14611667D01*
X18757381Y-14621190D01*
X18766905Y-14640238D01*
X18766905Y-14697381D01*
X18757381Y-14716428D01*
X18747857Y-14725952D01*
X18728810Y-14735476D01*
X18690714Y-14735476D01*
X18671667Y-14725952D01*
X18881190Y-14735476D02*
X18862143Y-14725952D01*
X18852619Y-14706905D01*
X18852619Y-14535476D01*
X19043095Y-14735476D02*
X19043095Y-14630714D01*
X19033571Y-14611667D01*
X19014524Y-14602143D01*
X18976429Y-14602143D01*
X18957381Y-14611667D01*
X19043095Y-14725952D02*
X19024048Y-14735476D01*
X18976429Y-14735476D01*
X18957381Y-14725952D01*
X18947857Y-14706905D01*
X18947857Y-14687857D01*
X18957381Y-14668809D01*
X18976429Y-14659286D01*
X19024048Y-14659286D01*
X19043095Y-14649762D01*
X19109762Y-14602143D02*
X19185952Y-14602143D01*
X19138333Y-14535476D02*
X19138333Y-14706905D01*
X19147857Y-14725952D01*
X19166905Y-14735476D01*
X19185952Y-14735476D01*
X19328810Y-14725952D02*
X19309762Y-14735476D01*
X19271667Y-14735476D01*
X19252619Y-14725952D01*
X19243095Y-14706905D01*
X19243095Y-14630714D01*
X19252619Y-14611667D01*
X19271667Y-14602143D01*
X19309762Y-14602143D01*
X19328810Y-14611667D01*
X19338333Y-14630714D01*
X19338333Y-14649762D01*
X19243095Y-14668809D01*
X19509762Y-14735476D02*
X19509762Y-14535476D01*
X19509762Y-14725952D02*
X19490714Y-14735476D01*
X19452619Y-14735476D01*
X19433571Y-14725952D01*
X19424048Y-14716428D01*
X19414524Y-14697381D01*
X19414524Y-14640238D01*
X19424048Y-14621190D01*
X19433571Y-14611667D01*
X19452619Y-14602143D01*
X19490714Y-14602143D01*
X19509762Y-14611667D01*
X19585952Y-14811667D02*
X19595476Y-14802143D01*
X19614524Y-14773571D01*
X19624048Y-14754524D01*
X19633571Y-14725952D01*
X19643095Y-14678333D01*
X19643095Y-14640238D01*
X19633571Y-14592619D01*
X19624048Y-14564048D01*
X19614524Y-14545000D01*
X19595476Y-14516428D01*
X19585952Y-14506905D01*
M02*
